<svg width="163" height="172" viewBox="0 0 163 172" fill="none" xmlns="http://www.w3.org/2000/svg">
<g clip-path="url(#clip0_2612_68)">
<rect width="163" height="172" fill="white"/>
<path d="M53.5938 13.6875H73.8013C76.3697 13.6879 78.8328 14.7082 80.6491 16.5241L123.413 59.2884C125.229 61.1047 126.25 63.5678 126.25 66.1362V125.094C126.25 128.948 124.719 132.644 121.994 135.369C119.269 138.094 115.573 139.625 111.719 139.625H48.75C44.8961 139.625 41.2 138.094 38.4749 135.369C35.7497 132.644 34.2188 128.948 34.2188 125.094V86.3438" stroke="#212327" stroke-width="4" stroke-linecap="round" stroke-linejoin="round"/>
<path d="M77.8125 16.1094V52.4375C77.8125 55.0068 78.8331 57.4708 80.6499 59.2876C82.4667 61.1044 84.9307 62.125 87.5 62.125H123.828" stroke="#212327" stroke-width="4" stroke-linecap="round" stroke-linejoin="round"/>
<path d="M39.0625 18.5312V64.5469C39.0751 65.5045 38.8958 66.455 38.5351 67.3422C38.1745 68.2294 37.6398 69.0354 36.9626 69.7126C36.2854 70.3898 35.4794 70.9245 34.5922 71.2851C33.705 71.6458 32.7545 71.8251 31.7969 71.8125C28.1641 71.8125 24.5312 69.0576 24.5312 64.5469V20.9531C24.5312 11.6925 29.5476 4 39.0625 4C48.5774 4 53.5938 11.5078 53.5938 20.7654V62.7698C53.5938 75.7874 45.1717 86.3438 31.7969 86.3438C18.4221 86.3438 10 75.7904 10 62.7698V37.9062" stroke="#212327" stroke-width="4" stroke-miterlimit="10" stroke-linecap="round"/>
<path d="M68.8105 95.8169H107.218" stroke="#212327" stroke-width="3" stroke-linecap="round"/>
<path d="M94.873 80.7285L107.218 80.7285" stroke="#FF0420" stroke-width="3" stroke-linecap="round"/>
<path d="M68.8105 109.534H107.218" stroke="#212327" stroke-width="3" stroke-linecap="round"/>
<path d="M68.8105 123.25H107.218" stroke="#212327" stroke-width="3" stroke-linecap="round"/>
<circle cx="55.094" cy="95.8169" r="4.11504" fill="#FF0420"/>
<circle cx="55.094" cy="109.534" r="4.11504" fill="#FF0420"/>
<circle cx="55.094" cy="123.251" r="4.11504" fill="#FF0420"/>
<rect x="86.625" y="96.3125" width="80" height="80" rx="40" fill="white"/>
<path d="M156.625 136.312C156.625 119.75 143.188 106.312 126.625 106.312C110.062 106.312 96.625 119.75 96.625 136.312C96.625 152.875 110.062 166.312 126.625 166.312C143.188 166.312 156.625 152.875 156.625 136.312Z" stroke="#212327" stroke-width="4" stroke-miterlimit="10"/>
<path d="M144.125 126.312L126.645 146.312L119.153 138.812M116.617 146.312L109.125 138.812M134.392 126.312L126.338 135.531" stroke="#212327" stroke-width="4" stroke-linecap="round" stroke-linejoin="round"/>
<path d="M116.617 146.312L109.125 138.812M134.392 126.312L126.338 135.531" stroke="#FF0420" stroke-width="4" stroke-linecap="round" stroke-linejoin="round"/>
</g>
<defs>
<clipPath id="clip0_2612_68">
<rect width="163" height="172" fill="white"/>
</clipPath>
</defs>
</svg>
