<svg width="229" height="247" viewBox="0 0 229 247" fill="none" xmlns="http://www.w3.org/2000/svg">
<g clip-path="url(#clip0_2611_66)">
<rect width="229" height="247" fill="white"/>
<path d="M75.0534 175.351C74.7466 175.351 74.4451 175.27 74.1806 175.114C66.8995 171.216 60.6044 169.562 53.0575 169.562C45.5484 169.562 38.4182 171.413 31.9329 175.114C31.0157 175.633 29.8854 175.272 29.3538 174.32C29.1165 173.861 29.063 173.329 29.2041 172.831C29.3452 172.334 29.6703 171.909 30.1134 171.643C37.108 167.676 45.0163 165.601 53.0575 165.625C61.1343 165.625 68.189 167.476 75.9262 171.61C76.3776 171.858 76.7138 172.273 76.8625 172.767C77.0113 173.26 76.9608 173.792 76.7219 174.248C76.5783 174.572 76.3448 174.848 76.0491 175.044C75.7533 175.239 75.4078 175.346 75.0534 175.351ZM20.7832 196.022C20.3891 196.02 20.0054 195.896 19.6839 195.668C19.2657 195.357 18.9844 194.896 18.8993 194.382C18.8142 193.868 18.932 193.341 19.2279 192.912C22.9832 187.399 27.7591 183.068 33.4504 180.036C45.3581 173.664 60.6044 173.618 72.5498 179.997C78.2395 183.029 83.017 187.321 86.7724 192.794C87.067 193.223 87.1841 193.75 87.099 194.264C87.014 194.777 86.7335 195.238 86.3163 195.55C86.1139 195.701 85.8825 195.809 85.6366 195.868C85.3907 195.926 85.1354 195.933 84.8866 195.889C84.6378 195.845 84.4007 195.75 84.19 195.61C83.9794 195.471 83.7996 195.289 83.6618 195.077C80.2493 190.116 75.9262 186.218 70.8058 183.501C59.9219 177.713 46.0029 177.713 35.1567 183.541C29.9986 186.297 25.6755 190.234 22.263 195.189C22.1159 195.45 21.9002 195.665 21.6393 195.812C21.3785 195.959 21.0824 196.032 20.7832 196.022ZM44.4853 243.555C44.2346 243.557 43.9864 243.506 43.7574 243.404C43.5284 243.302 43.324 243.152 43.158 242.964C39.8587 239.532 38.0704 237.32 35.5357 232.562C32.9107 227.719 31.5539 221.813 31.5539 215.474C31.5539 203.779 41.186 194.251 53.0198 194.251C64.8536 194.251 74.4923 203.779 74.4923 215.474C74.4998 215.727 74.4563 215.98 74.3643 216.216C74.2724 216.453 74.134 216.669 73.9572 216.851C73.7804 217.033 73.5689 217.177 73.3352 217.276C73.1015 217.375 72.8503 217.426 72.5966 217.426C72.3428 217.426 72.0916 217.375 71.8579 217.276C71.6242 217.177 71.4127 217.033 71.2359 216.851C71.0591 216.669 70.9207 216.453 70.8288 216.216C70.7369 215.98 70.6934 215.727 70.7008 215.474C70.7008 205.945 62.7733 198.188 53.028 198.188C43.2827 198.188 35.347 205.945 35.347 215.474C35.347 221.144 36.5594 226.381 38.8727 230.633C41.3008 235.161 42.9743 237.091 45.8897 240.162C46.2354 240.544 46.4268 241.041 46.4268 241.556C46.4268 242.072 46.2354 242.569 45.8897 242.951C45.5174 243.326 45.0139 243.543 44.4853 243.555ZM71.6786 236.27C67.1653 236.27 63.1835 235.089 59.9219 232.766C57.1432 230.818 54.8731 228.231 53.3027 225.223C51.7324 222.215 50.9079 218.874 50.8985 215.48C50.8878 215.225 50.929 214.969 51.0195 214.73C51.11 214.491 51.248 214.272 51.4252 214.087C51.6024 213.903 51.815 213.756 52.0504 213.655C52.2858 213.555 52.5391 213.503 52.795 213.503C53.051 213.503 53.3042 213.555 53.5396 213.655C53.775 213.756 53.9877 213.903 54.1649 214.087C54.342 214.272 54.48 214.491 54.5705 214.73C54.6611 214.969 54.7022 215.225 54.6916 215.48C54.698 218.237 55.3702 220.95 56.6511 223.391C57.9319 225.832 59.7835 227.927 62.0482 229.498C64.7404 231.388 67.8888 232.287 71.6819 232.287C73.003 232.263 74.3199 232.132 75.6194 231.893C76.6432 231.696 77.6292 232.405 77.8179 233.507C77.914 234.016 77.8044 234.542 77.5131 234.971C77.2219 235.399 76.7727 235.694 76.2642 235.791C74.7535 236.09 73.2184 236.248 71.6786 236.264V236.27ZM64.0547 244.375C63.8881 244.368 63.7229 244.342 63.5625 244.296C57.5315 242.564 53.5875 240.241 49.4531 236.027C44.1424 230.554 41.2237 223.27 41.2237 215.474C41.2237 209.095 46.4573 203.897 52.9033 203.897C59.3493 203.897 64.5846 209.095 64.5846 215.474C64.5846 219.687 68.1119 223.112 72.4727 223.112C76.8335 223.112 80.3608 219.687 80.3608 215.474C80.3608 200.629 68.0348 188.581 52.8656 188.581C42.0949 188.581 32.2347 194.802 27.7985 204.449C26.3219 207.638 25.5607 211.379 25.5607 215.474C25.5607 218.545 25.8248 223.388 28.1004 229.688C28.481 230.712 27.9871 231.854 27.0011 232.208C26.7668 232.297 26.5169 232.338 26.2663 232.328C26.0157 232.319 25.7698 232.258 25.5431 232.151C25.3165 232.044 25.1138 231.892 24.9474 231.704C24.781 231.517 24.6542 231.297 24.5746 231.06C22.7448 226.067 21.8074 220.791 21.8053 215.474C21.8053 210.749 22.6781 206.45 24.3843 202.716C29.4293 191.724 40.6167 184.604 52.8656 184.604C70.1217 184.604 84.1539 198.424 84.1539 215.434C84.1539 221.813 78.9204 227.011 72.4727 227.011C66.025 227.011 60.7914 221.813 60.7914 215.434C60.7931 211.221 57.2657 207.789 52.905 207.789C48.5442 207.789 45.0168 211.215 45.0168 215.428C45.0168 222.154 47.5204 228.461 52.1093 233.186C55.7186 236.887 59.1639 238.928 64.5107 240.47C65.5345 240.746 66.1038 241.848 65.838 242.872C65.7552 243.288 65.5336 243.663 65.2095 243.936C64.8855 244.209 64.4783 244.364 64.0547 244.375Z" fill="#212327"/>
<circle cx="89" cy="128" r="84" fill="#FF0420" fill-opacity="0.2"/>
<path d="M42.1581 142.224L42.4783 143.667L30.1924 142.018L29.877 140.598L40.3103 133.904L40.6305 135.347L31.822 140.865L31.8417 140.954L42.1581 142.224ZM37.6025 142.678L36.3115 136.865L37.5317 136.594L38.8227 142.406L37.6025 142.678Z" fill="#212327"/>
<path d="M31.8462 118.45L32.9738 118.591L32.414 123.079L31.2864 122.938L31.8462 118.45ZM29.3747 121.371L29.5407 120.041L37.7949 121.07C38.1708 121.117 38.4595 121.098 38.661 121.012C38.8593 120.922 39.0011 120.795 39.0866 120.63C39.1688 120.461 39.222 120.279 39.2464 120.083C39.2647 119.937 39.2722 119.815 39.2689 119.719C39.2618 119.623 39.2561 119.546 39.2519 119.488L40.4809 119.367C40.5035 119.461 40.5216 119.591 40.5353 119.757C40.5527 119.924 40.546 120.131 40.515 120.379C40.4681 120.755 40.3414 121.113 40.1347 121.454C39.9286 121.791 39.6453 122.057 39.285 122.252C38.9252 122.444 38.4934 122.509 37.9898 122.446L29.3747 121.371Z" fill="#212327"/>
<path d="M36.3969 103.07L37.4421 103.516L35.6672 107.676L34.622 107.23L36.3969 103.07ZM33.2161 105.197L33.7423 103.964L41.3932 107.228C41.7416 107.377 42.0245 107.438 42.2418 107.411C42.4571 107.38 42.6286 107.296 42.7562 107.161C42.8818 107.021 42.9832 106.861 43.0605 106.68C43.1185 106.544 43.1591 106.429 43.1823 106.336C43.2021 106.242 43.2179 106.166 43.2297 106.109L44.4447 106.331C44.4403 106.428 44.4219 106.558 44.3893 106.721C44.3603 106.886 44.2967 107.083 44.1985 107.313C44.0499 107.662 43.8293 107.971 43.5368 108.242C43.2458 108.509 42.9001 108.687 42.4999 108.775C42.1011 108.861 41.6683 108.804 41.2015 108.604L33.2161 105.197Z" fill="#212327"/>
<path d="M51.8709 95.2304C51.3081 95.8552 50.6848 96.2699 50.0008 96.4746C49.3165 96.6739 48.6151 96.6717 47.8963 96.4678C47.1773 96.2586 46.4857 95.8549 45.8215 95.2566C45.1573 94.6583 44.6809 94.0099 44.3924 93.3116C44.1035 92.6079 44.0134 91.9099 44.1221 91.2176C44.2305 90.5199 44.5484 89.8784 45.0757 89.293C45.3799 88.9553 45.7366 88.6725 46.1458 88.4446C46.555 88.2167 47.0079 88.0817 47.5046 88.0397C47.9984 87.9951 48.5245 88.079 49.0827 88.2912C49.6409 88.5035 50.2226 88.8821 50.8277 89.4272L51.2499 89.8074L46.7475 94.8059L45.8862 94.0302L49.476 90.0449C49.1101 89.7153 48.7177 89.4944 48.2988 89.3822C47.8825 89.2671 47.4708 89.2685 47.0639 89.3863C46.6596 89.5013 46.2952 89.7389 45.9707 90.0992C45.6132 90.496 45.4024 90.9281 45.3383 91.3955C45.2739 91.8575 45.3282 92.3065 45.5012 92.7427C45.6742 93.1789 45.9394 93.558 46.2968 93.88L46.871 94.3971C47.3607 94.8383 47.8519 95.1278 48.3445 95.2656C48.8369 95.3982 49.3086 95.3923 49.7597 95.2481C50.208 95.1013 50.6134 94.8267 50.976 94.4242C51.2117 94.1625 51.3881 93.8931 51.505 93.6161C51.6217 93.3337 51.6752 93.048 51.6655 92.7588C51.6529 92.4671 51.5721 92.1777 51.423 91.8904L52.5602 91.1713C52.7954 91.5667 52.9291 91.9955 52.9613 92.4578C52.9907 92.9176 52.9158 93.3855 52.7369 93.8616C52.5551 94.335 52.2664 94.7913 51.8709 95.2304Z" fill="#212327"/>
<path d="M65.4061 76.4331L64.4862 77.2822C64.3278 77.1374 64.1398 77.014 63.9224 76.912C63.7066 76.8048 63.459 76.7521 63.1795 76.7537C62.9 76.7554 62.5863 76.8445 62.2383 77.021C61.7621 77.2627 61.4208 77.5739 61.2147 77.9545C61.0103 78.3301 60.9929 78.6851 61.1626 79.0195C61.3134 79.3168 61.5406 79.4967 61.8442 79.5593C62.1478 79.6219 62.5584 79.594 63.0761 79.4758L64.3753 79.1734C65.1569 78.9892 65.8065 78.9845 66.3242 79.1593C66.8402 79.3308 67.2362 79.6884 67.5121 80.2323C67.7384 80.6782 67.8122 81.1419 67.7338 81.6235C67.6587 82.1033 67.4445 82.5603 67.0914 82.9943C66.7382 83.4284 66.2592 83.7988 65.6546 84.1056C64.8608 84.5084 64.1164 84.6695 63.4213 84.5889C62.7263 84.5083 62.1416 84.172 61.6672 83.5802L62.6582 82.7206C62.9788 83.0846 63.3426 83.2951 63.7495 83.352C64.1597 83.4072 64.6098 83.3105 65.0996 83.062C65.6569 82.7792 66.0395 82.4364 66.2471 82.0337C66.4565 81.6259 66.4763 81.2548 66.3067 80.9204C66.1695 80.6501 65.9601 80.4718 65.6784 80.3854C65.395 80.2956 65.0342 80.3045 64.5961 80.4121L63.1447 80.7662C62.3463 80.959 61.6898 80.9628 61.1755 80.7778C60.6628 80.5877 60.2701 80.2242 59.9976 79.6871C59.7748 79.2479 59.701 78.7969 59.7762 78.334C59.8548 77.8694 60.0597 77.432 60.391 77.0217C60.7257 76.6098 61.1667 76.265 61.7139 75.9874C62.484 75.5966 63.1744 75.4587 63.7849 75.5737C64.3988 75.6869 64.9392 75.9734 65.4061 76.4331Z" fill="#212327"/>
<path d="M81.4787 69.7949L81.651 70.9181L77.1806 71.6042L77.0083 70.481L81.4787 69.7949ZM77.994 68.2143L79.3194 68.0109L80.5812 76.2328C80.6387 76.6072 80.7361 76.8797 80.8734 77.0502C81.0139 77.2164 81.1751 77.3182 81.3571 77.3554C81.5423 77.3883 81.7322 77.3898 81.9269 77.3599C82.0729 77.3375 82.1916 77.3116 82.2829 77.2823C82.3736 77.2492 82.4462 77.2227 82.5006 77.2029L82.9529 78.3521C82.8682 78.3996 82.748 78.4525 82.5921 78.5109C82.4369 78.5731 82.2357 78.6231 81.9886 78.6611C81.6142 78.7185 81.2349 78.6943 80.8508 78.5885C80.4704 78.4821 80.137 78.2822 79.8505 77.989C79.5679 77.6951 79.388 77.2973 79.311 76.7956L77.994 68.2143Z" fill="#212327"/>
<path d="M95.2244 78.636C94.68 78.5383 94.2045 78.347 93.7976 78.0623C93.3914 77.7739 93.093 77.4105 92.9023 76.9721C92.7123 76.5301 92.6675 76.0294 92.7679 75.4702C92.8563 74.9781 93.0249 74.5966 93.2736 74.3257C93.523 74.051 93.8257 73.8552 94.1815 73.7382C94.5373 73.6212 94.9187 73.555 95.3255 73.5396C95.7368 73.521 96.1466 73.5215 96.5549 73.5409C97.0889 73.5675 97.5211 73.5932 97.8514 73.6179C98.1862 73.6395 98.4359 73.6208 98.6004 73.5619C98.7687 73.5036 98.8719 73.3682 98.91 73.1556L98.9181 73.1109C99.0171 72.5591 98.9431 72.1033 98.696 71.7433C98.4527 71.384 98.0271 71.1499 97.4194 71.0407C96.7893 70.9276 96.2706 70.9768 95.8631 71.1885C95.4557 71.4001 95.1511 71.6494 94.9495 71.9365L93.7771 71.2642C94.0946 70.7824 94.4658 70.4296 94.8908 70.2057C95.3203 69.9788 95.7672 69.8474 96.2316 69.8115C96.7004 69.7725 97.1511 69.7918 97.5835 69.8695C97.8594 69.919 98.1703 70.0095 98.5162 70.1409C98.8664 70.2692 99.1913 70.4641 99.4907 70.7257C99.7938 70.9879 100.021 71.3423 100.171 71.7889C100.322 72.2354 100.336 72.7998 100.214 73.4821L99.1976 79.1416L97.8777 78.9046L98.0866 77.7414L98.0195 77.7293C97.8966 77.8997 97.7116 78.0724 97.4647 78.2474C97.2177 78.4224 96.9075 78.5534 96.534 78.6402C96.1605 78.7271 95.724 78.7257 95.2244 78.636ZM95.6386 77.4866C96.1605 77.5803 96.6189 77.5567 97.0136 77.416C97.4121 77.2758 97.7318 77.06 97.9727 76.7684C98.2173 76.4776 98.3718 76.1532 98.4361 75.7952L98.653 74.5873C98.585 74.6444 98.4509 74.6838 98.2507 74.7056C98.0549 74.7243 97.8303 74.7321 97.5769 74.7289C97.3279 74.7227 97.0851 74.7137 96.8486 74.702C96.6165 74.6873 96.4279 74.6765 96.2829 74.6697C95.9319 74.6529 95.5982 74.668 95.2819 74.7151C94.9699 74.7592 94.7049 74.8636 94.4867 75.0284C94.2729 75.1901 94.1359 75.4388 94.0757 75.7743C93.9933 76.2329 94.1007 76.6101 94.3978 76.9059C94.6993 77.1986 95.1129 77.3922 95.6386 77.4866Z" fill="#212327"/>
<path d="M118.069 77.2773L117.516 78.2704L113.564 76.0719L114.116 75.0788L118.069 77.2773ZM116.285 73.8923L117.457 74.5441L113.413 81.8135C113.229 82.1445 113.139 82.4194 113.143 82.6384C113.152 82.8558 113.217 83.035 113.338 83.176C113.464 83.3155 113.613 83.4331 113.785 83.5288C113.914 83.6007 114.024 83.653 114.114 83.6857C114.206 83.7152 114.28 83.7388 114.335 83.7565L113.988 84.9417C113.892 84.9273 113.764 84.8954 113.605 84.8461C113.444 84.8 113.255 84.7162 113.036 84.5947C112.705 84.4105 112.421 84.1589 112.182 83.8398C111.947 83.5226 111.806 83.1603 111.759 82.753C111.716 82.3475 111.818 81.923 112.065 81.4794L116.285 73.8923Z" fill="#212327"/>
<path d="M121.715 90.7405L127.736 84.4232L128.707 85.3484L122.686 91.6657L121.715 90.7405ZM129.233 83.8407C129.044 83.6604 128.942 83.4405 128.928 83.1809C128.917 82.924 128.997 82.7051 129.17 82.5241C129.342 82.3431 129.557 82.2522 129.814 82.2514C130.074 82.2532 130.299 82.3443 130.488 82.5246C130.677 82.705 130.777 82.9236 130.789 83.1805C130.803 83.4401 130.724 83.6603 130.552 83.8413C130.379 84.0222 130.163 84.1118 129.903 84.11C129.646 84.1108 129.423 84.0211 129.233 83.8407Z" fill="#212327"/>
<path d="M130.86 102.271C130.479 101.581 130.309 100.886 130.349 100.184C130.392 99.4851 130.627 98.8269 131.056 98.209C131.487 97.5945 132.097 97.0692 132.886 96.6332C133.682 96.1936 134.456 95.954 135.209 95.9145C135.964 95.8783 136.648 96.0282 137.262 96.364C137.878 96.7032 138.376 97.2176 138.757 97.9072C139.138 98.5968 139.308 99.2909 139.265 99.9894C139.225 100.691 138.987 101.35 138.553 101.967C138.121 102.586 137.507 103.116 136.711 103.556C135.922 103.992 135.152 104.227 134.401 104.261C133.651 104.299 132.968 104.148 132.353 103.809C131.739 103.473 131.241 102.961 130.86 102.271ZM131.914 101.688C132.204 102.212 132.576 102.569 133.032 102.759C133.487 102.949 133.978 103.004 134.506 102.924C135.033 102.845 135.552 102.664 136.063 102.382C136.573 102.1 137.004 101.756 137.355 101.35C137.707 100.944 137.925 100.496 138.01 100.008C138.095 99.5197 137.992 99.0136 137.703 98.4897C137.414 97.9659 137.039 97.61 136.581 97.422C136.122 97.2341 135.627 97.1807 135.097 97.2619C134.566 97.3431 134.045 97.5248 133.535 97.8069C133.024 98.089 132.595 98.4322 132.247 98.8365C131.899 99.2408 131.684 99.6862 131.603 100.173C131.521 100.659 131.625 101.164 131.914 101.688Z" fill="#212327"/>
<path d="M142.143 116.789L136.933 117.439L136.767 116.108L145.427 115.028L145.588 116.313L144.235 116.482L144.249 116.595C144.714 116.743 145.106 117.007 145.424 117.387C145.746 117.767 145.948 118.284 146.03 118.938C146.103 119.524 146.047 120.052 145.861 120.522C145.679 120.991 145.361 121.378 144.906 121.683C144.456 121.987 143.862 122.186 143.125 122.278L137.622 122.964L137.456 121.633L142.869 120.958C143.549 120.873 144.057 120.631 144.393 120.23C144.732 119.829 144.863 119.32 144.787 118.703C144.734 118.279 144.594 117.911 144.368 117.599C144.143 117.291 143.841 117.064 143.464 116.916C143.087 116.768 142.647 116.726 142.143 116.789Z" fill="#212327"/>
<path d="M142.395 142.296L142.355 141.045C142.568 141.02 142.784 140.958 143.004 140.861C143.226 140.768 143.428 140.615 143.61 140.402C143.791 140.19 143.929 139.895 144.024 139.516C144.153 138.998 144.141 138.536 143.988 138.131C143.837 137.731 143.58 137.485 143.217 137.395C142.893 137.314 142.608 137.368 142.362 137.557C142.116 137.745 141.869 138.074 141.619 138.543L140.998 139.723C140.625 140.435 140.204 140.929 139.733 141.206C139.265 141.484 138.736 141.549 138.144 141.402C137.659 141.281 137.26 141.033 136.947 140.659C136.633 140.288 136.428 139.827 136.331 139.276C136.234 138.725 136.267 138.12 136.431 137.462C136.646 136.599 137.011 135.93 137.527 135.458C138.043 134.985 138.68 134.763 139.438 134.791L139.439 136.103C138.954 136.107 138.557 136.245 138.248 136.515C137.938 136.789 137.716 137.193 137.583 137.726C137.432 138.332 137.441 138.846 137.61 139.266C137.781 139.692 138.049 139.949 138.413 140.04C138.707 140.113 138.979 140.072 139.228 139.915C139.482 139.76 139.711 139.481 139.916 139.079L140.599 137.75C140.975 137.02 141.402 136.521 141.879 136.254C142.358 135.99 142.89 135.931 143.474 136.077C143.952 136.196 144.341 136.435 144.642 136.795C144.942 137.159 145.139 137.6 145.232 138.119C145.324 138.641 145.297 139.2 145.148 139.796C144.94 140.634 144.592 141.246 144.106 141.633C143.618 142.023 143.048 142.244 142.395 142.296Z" fill="#212327"/>
<path d="M83.0114 116.727V140H78.0909V121.398H77.9545L72.625 124.739V120.375L78.3864 116.727H83.0114ZM88.5426 140V136.455L96.8267 128.784C97.5313 128.102 98.1222 127.489 98.5994 126.943C99.0843 126.398 99.4517 125.864 99.7017 125.341C99.9517 124.811 100.077 124.239 100.077 123.625C100.077 122.943 99.9214 122.356 99.6108 121.864C99.3002 121.364 98.8759 120.981 98.3381 120.716C97.8002 120.443 97.1903 120.307 96.5085 120.307C95.7964 120.307 95.1752 120.451 94.6449 120.739C94.1146 121.027 93.7055 121.439 93.4176 121.977C93.1297 122.515 92.9858 123.155 92.9858 123.898H88.3153C88.3153 122.375 88.66 121.053 89.3494 119.932C90.0388 118.811 91.0047 117.943 92.2472 117.33C93.4896 116.716 94.9214 116.409 96.5426 116.409C98.2093 116.409 99.66 116.705 100.895 117.295C102.137 117.879 103.103 118.689 103.793 119.727C104.482 120.765 104.827 121.955 104.827 123.295C104.827 124.174 104.652 125.042 104.304 125.898C103.963 126.754 103.353 127.705 102.474 128.75C101.596 129.788 100.357 131.034 98.7585 132.489L95.3608 135.818V135.977H105.134V140H88.5426Z" fill="#212327"/>
<path d="M168.906 10.125H183.638C185.511 10.1253 187.306 10.8691 188.63 12.193L219.807 43.3695C221.131 44.6937 221.875 46.4894 221.875 48.3618V91.3438C221.875 94.1534 220.759 96.848 218.772 98.8347C216.785 100.821 214.091 101.937 211.281 101.938H165.375C162.565 101.937 159.871 100.821 157.884 98.8347C155.897 96.848 154.781 94.1534 154.781 91.3438V63.0938" stroke="#212327" stroke-width="4" stroke-linecap="round" stroke-linejoin="round"/>
<path d="M186.562 11.8906V38.375C186.562 40.2481 187.307 42.0445 188.631 43.3689C189.956 44.6934 191.752 45.4375 193.625 45.4375H220.109" stroke="#212327" stroke-width="4" stroke-linecap="round" stroke-linejoin="round"/>
<path d="M158.312 13.6562V47.2031C158.322 47.9013 158.191 48.5942 157.928 49.241C157.665 49.8878 157.275 50.4754 156.782 50.9691C156.288 51.4628 155.7 51.8526 155.053 52.1155C154.407 52.3785 153.714 52.5092 153.016 52.5C150.367 52.5 147.719 50.4916 147.719 47.2031V15.4219C147.719 8.67057 151.376 3.0625 158.312 3.0625C165.249 3.0625 168.906 8.53594 168.906 15.285V45.9076C168.906 55.3978 162.766 63.0938 153.016 63.0938C143.265 63.0938 137.125 55.4 137.125 45.9076V27.7812" stroke="#212327" stroke-width="4" stroke-miterlimit="10" stroke-linecap="round"/>
<path d="M180 70H208" stroke="#212327" stroke-width="3" stroke-linecap="round"/>
<path d="M199 59L208 59" stroke="#FF0420" stroke-width="3" stroke-linecap="round"/>
<path d="M180 80H208" stroke="#212327" stroke-width="3" stroke-linecap="round"/>
<path d="M180 90H208" stroke="#212327" stroke-width="3" stroke-linecap="round"/>
<circle cx="170" cy="70" r="3" fill="#FF0420"/>
<circle cx="170" cy="80" r="3" fill="#FF0420"/>
<circle cx="170" cy="90" r="3" fill="#FF0420"/>
</g>
<defs>
<clipPath id="clip0_2611_66">
<rect width="229" height="247" fill="white"/>
</clipPath>
</defs>
</svg>
