<?xml version="1.0" encoding="utf-8"?>
<!-- Generator: Adobe Illustrator 27.5.0, SVG Export Plug-In . SVG Version: 6.00 Build 0)  -->
<svg version="1.1" id="Layer_1" xmlns="http://www.w3.org/2000/svg" xmlns:xlink="http://www.w3.org/1999/xlink" x="0px" y="0px"
	 viewBox="0 0 150 20" style="enable-background:new 0 0 150 20;" xml:space="preserve">
<path d="M7.6,20c-2.2,0-4-0.5-5.5-1.6C0.7,17.4,0,15.9,0,13.9c0-0.4,0-0.9,0.1-1.5c0.2-1.3,0.6-2.9,1-4.8C2.4,2.5,5.7,0,11,0
	c1.4,0,2.7,0.2,3.9,0.7c1.1,0.5,2,1.2,2.7,2.1c0.7,0.9,1,2,1,3.3c0,0.4,0,0.9-0.1,1.5c-0.3,1.6-0.6,3.3-1,4.8
	c-0.7,2.5-1.8,4.4-3.4,5.7C12.4,19.4,10.3,20,7.6,20z M8,16c1,0,1.9-0.3,2.7-0.9c0.7-0.6,1.3-1.5,1.6-2.8c0.4-1.7,0.8-3.3,1-4.6
	c0.1-0.4,0.1-0.8,0.1-1.2c0-1.7-0.9-2.5-2.7-2.5C9.6,4,8.7,4.3,8,4.9C7.2,5.5,6.7,6.5,6.4,7.7c-0.3,1.2-0.7,2.8-1,4.6
	c-0.1,0.4-0.1,0.8-0.1,1.2C5.3,15.1,6.2,16,8,16z"/>
<path d="M21.4,19.7c-0.2,0-0.4-0.1-0.5-0.2c-0.1-0.1-0.1-0.3-0.1-0.5L24.7,1c0-0.2,0.1-0.4,0.3-0.5c0.2-0.1,0.3-0.2,0.5-0.2H33
	c2.1,0,3.7,0.4,5,1.3c1.3,0.9,1.9,2.1,1.9,3.7c0,0.5-0.1,0.9-0.2,1.4c-0.5,2.1-1.4,3.7-2.8,4.7c-1.4,1-3.3,1.5-5.8,1.5h-3.8L26.1,19
	c0,0.2-0.1,0.4-0.3,0.5c-0.2,0.1-0.3,0.2-0.5,0.2H21.4z M31.3,9.1c0.8,0,1.5-0.2,2-0.6c0.6-0.4,1-1,1.2-1.8c0.1-0.3,0.1-0.6,0.1-0.8
	c0-0.5-0.2-0.9-0.5-1.2c-0.3-0.3-0.9-0.4-1.6-0.4h-3.4l-1.1,5H31.3z"/>
<path d="M46.3,19.7c-0.2,0-0.4-0.1-0.5-0.2c-0.1-0.1-0.1-0.3-0.1-0.5l3.1-14.4h-5c-0.2,0-0.4-0.1-0.5-0.2c-0.1-0.1-0.1-0.3-0.1-0.5
	l0.6-3c0-0.2,0.1-0.4,0.3-0.5c0.2-0.1,0.3-0.2,0.5-0.2h15.1c0.2,0,0.4,0.1,0.5,0.2c0.1,0.1,0.1,0.2,0.1,0.3c0,0.1,0,0.1,0,0.2
	l-0.6,3c0,0.2-0.1,0.4-0.3,0.5c-0.1,0.1-0.3,0.2-0.5,0.2h-5L50.8,19c0,0.2-0.1,0.4-0.3,0.5c-0.2,0.1-0.3,0.2-0.5,0.2H46.3z"/>
<path d="M61.1,19.7c-0.2,0-0.4-0.1-0.5-0.2c-0.1-0.1-0.1-0.3-0.1-0.5L64.4,1c0-0.2,0.1-0.4,0.3-0.5c0.2-0.1,0.3-0.2,0.5-0.2H69
	c0.2,0,0.4,0.1,0.5,0.2c0.1,0.1,0.1,0.2,0.1,0.3c0,0.1,0,0.1,0,0.2L65.7,19c0,0.2-0.1,0.4-0.3,0.5c-0.2,0.1-0.3,0.2-0.5,0.2H61.1z"
	/>
<path d="M71.8,19.7c-0.2,0-0.4-0.1-0.5-0.2c-0.1-0.1-0.1-0.3-0.1-0.5L75.1,1c0-0.2,0.1-0.4,0.3-0.5c0.2-0.1,0.4-0.2,0.6-0.2h3
	c0.4,0,0.7,0.2,0.9,0.6l3.1,8.8l6.8-8.8c0.1-0.1,0.2-0.3,0.4-0.4c0.2-0.1,0.4-0.2,0.7-0.2h3.1c0.2,0,0.4,0.1,0.5,0.2
	c0.1,0.1,0.1,0.2,0.1,0.3c0,0.1,0,0.1,0,0.2L90.5,19c0,0.2-0.1,0.4-0.3,0.5c-0.2,0.1-0.3,0.2-0.5,0.2h-3.4c-0.2,0-0.4-0.1-0.5-0.2
	c-0.1-0.1-0.1-0.3-0.1-0.5l2.2-10.3l-4.3,5.6c-0.2,0.2-0.4,0.4-0.5,0.5s-0.4,0.2-0.6,0.2H81c-0.4,0-0.7-0.2-0.8-0.6l-2-5.9L76,19
	c0,0.2-0.1,0.4-0.3,0.5c-0.2,0.1-0.3,0.2-0.5,0.2H71.8z"/>
<path d="M96.5,19.7c-0.2,0-0.4-0.1-0.5-0.2C96,19.4,95.9,19.2,96,19L99.9,1c0-0.2,0.1-0.4,0.3-0.5c0.2-0.1,0.3-0.2,0.5-0.2h3.8
	c0.2,0,0.4,0.1,0.5,0.2c0.1,0.1,0.1,0.2,0.1,0.3c0,0.1,0,0.1,0,0.2L101.2,19c0,0.2-0.1,0.4-0.3,0.5c-0.2,0.1-0.3,0.2-0.5,0.2H96.5z"
	/>
<path d="M114.2,20c-1.6,0-3.1-0.2-4.2-0.7c-1.2-0.4-2-1-2.6-1.8c-0.6-0.7-0.9-1.6-0.9-2.5c0-0.1,0-0.4,0.1-0.7
	c0-0.2,0.1-0.3,0.2-0.4c0.1-0.1,0.3-0.2,0.4-0.2h3.6c0.2,0,0.4,0,0.5,0.1c0.1,0.1,0.3,0.2,0.4,0.4c0.1,0.5,0.4,0.9,0.9,1.2
	c0.5,0.3,1.2,0.5,2,0.5c1.1,0,1.9-0.2,2.6-0.5c0.7-0.3,1-0.8,1.2-1.4c0-0.1,0-0.2,0-0.3c0-0.5-0.3-0.8-0.9-1.1
	c-0.6-0.3-1.6-0.6-3.2-1c-1.8-0.4-3.2-1-4.1-1.8c-0.9-0.8-1.4-1.8-1.4-3.1c0-0.4,0.1-0.9,0.2-1.4c0.4-1.7,1.3-3.1,2.8-4.1
	c1.5-1,3.4-1.5,5.8-1.5c1.4,0,2.7,0.2,3.8,0.8c1.1,0.5,2,1.1,2.6,1.9c0.6,0.8,0.9,1.5,0.9,2.3c0,0.2,0,0.4,0,0.5
	c0,0.2-0.1,0.3-0.3,0.4C124.3,5.9,124.2,6,124,6h-3.8c-0.4,0-0.7-0.2-0.8-0.5c0-0.4-0.2-0.8-0.7-1.1c-0.4-0.3-1-0.4-1.7-0.4
	c-0.8,0-1.5,0.1-2,0.4c-0.5,0.3-0.9,0.7-1,1.3c0,0.1,0,0.2,0,0.4c0,0.4,0.3,0.8,0.8,1.1c0.5,0.3,1.5,0.6,2.8,0.9
	c2.1,0.4,3.6,1,4.6,1.8c1,0.8,1.5,1.8,1.5,3c0,0.4-0.1,0.9-0.2,1.4c-0.4,1.9-1.4,3.3-3,4.3C118.9,19.5,116.8,20,114.2,20z"/>
<path d="M127.4,19.7c-0.2,0-0.4-0.1-0.5-0.2c-0.1-0.1-0.2-0.3-0.1-0.5L130.6,1c0-0.2,0.1-0.4,0.3-0.5c0.2-0.1,0.4-0.2,0.6-0.2h3
	c0.4,0,0.7,0.2,0.9,0.6l3.1,8.8l6.8-8.8c0.1-0.1,0.2-0.3,0.4-0.4c0.2-0.1,0.4-0.2,0.7-0.2h3.1c0.2,0,0.4,0.1,0.5,0.2
	c0.1,0.1,0.1,0.2,0.1,0.3c0,0.1,0,0.1,0,0.2L146.1,19c0,0.2-0.1,0.4-0.3,0.5c-0.2,0.1-0.3,0.2-0.5,0.2h-3.4c-0.2,0-0.4-0.1-0.5-0.2
	c-0.1-0.1-0.1-0.3-0.1-0.5l2.2-10.3l-4.3,5.6c-0.2,0.2-0.4,0.4-0.5,0.5c-0.2,0.1-0.4,0.2-0.6,0.2h-1.5c-0.4,0-0.7-0.2-0.8-0.6
	l-2-5.9L131.6,19c0,0.2-0.1,0.4-0.3,0.5c-0.2,0.1-0.3,0.2-0.5,0.2H127.4z"/>
</svg>
