<?xml version="1.0" encoding="UTF-8"?>
<svg id="Layer_1" data-name="Layer 1" xmlns="http://www.w3.org/2000/svg" viewBox="0 0 267 68">
  <path d="m28.67,66.76L1.7,51.18c-.61-.35-.98-1-.98-1.7v-31.14c0-.7.37-1.35.98-1.7L28.67,1.07c.61-.35,1.36-.35,1.96,0l26.97,15.57c.61.35.98,1,.98,1.7v31.14c0,.7-.37,1.35-.98,1.7l-26.97,15.57c-.61.35-1.36.35-1.96,0ZM6.61,48.35l22.06,12.74c.61.35,1.36.35,1.96,0l22.06-12.74c.61-.35.98-1,.98-1.7v-25.47c0-.7-.37-1.35-.98-1.7L30.63,6.74c-.61-.35-1.36-.35-1.96,0L6.61,19.48c-.61.35-.98,1-.98,1.7v25.47c0,.7.37,1.35.98,1.7Z"/>
  <path d="m28.67,11.24l-18.16,10.49c-.61.35-.98,1-.98,1.7v19.84c0,1.4.75,2.7,1.96,3.4l2.21,1.27c.33.19.74-.05.74-.42v-21.25c0-.7.37-1.35.98-1.7l13.25-7.65c.61-.35,1.36-.35,1.96,0l13.25,7.65c.61.35.98,1,.98,1.7v15.3c0,.7-.37,1.35-.98,1.7l-13.25,7.65c-.61.35-1.36.35-1.96,0l-4.42-2.55c-.61-.35-.98-1-.98-1.7v-15.3c0-.7.37-1.35.98-1.7l4.42-2.55c.61-.35,1.36-.35,1.96,0l4.42,2.55c.61.35.98,1,.98,1.7v5.1c0,.7-.37,1.35-.98,1.7l-2.21,1.27c-.33.19-.74-.05-.74-.42v-5.35c0-.7-.37-1.35-.98-1.7l-.98-.57c-.3-.18-.68-.18-.98,0l-1.23.71c-.46.26-.74.75-.74,1.27v11.04c0,.7.38,1.35.99,1.7l.47.27c.61.35,1.35.34,1.96,0l9.34-5.39c.61-.35.98-1,.98-1.7v-10.77c0-.7-.37-1.35-.98-1.7l-9.33-5.38c-.61-.35-1.36-.35-1.96,0l-9.33,5.38c-.61.35-.98,1-.98,1.7v20.97c0,.7.37,1.35.98,1.7l9.33,5.38c.61.35,1.36.35,1.96,0l18.16-10.49c.61-.35.98-1,.98-1.7v-20.97c0-.7-.37-1.35-.98-1.7l-18.16-10.49c-.61-.35-1.36-.35-1.96,0h0Z"/>
  <path d="m93.46,14.44c2.79,0,5.18,1.06,7.17,3.19,1.99,2.13,2.98,4.61,2.98,7.42s-.99,5.34-2.98,7.46c-1.99,2.12-4.38,3.18-7.17,3.18h-11.48v15.64h-3.37V14.44h14.85Zm-.19,18.4c2,0,3.72-.76,5.15-2.29,1.43-1.53,2.14-3.34,2.14-5.44s-.72-3.87-2.16-5.4c-1.44-1.54-3.15-2.31-5.12-2.31h-11.29v15.45h11.29Z"/>
  <path d="m114.06,51.53c-2.6,0-4.76-.74-6.49-2.21-1.72-1.47-2.59-3.34-2.59-5.6,0-5.35,3.73-8.27,11.19-8.77l7.05-.43v-1.03c0-2.16-.65-3.81-1.95-4.95-1.3-1.14-3.08-1.71-5.34-1.71-1.97,0-3.58.56-4.82,1.67-1.24,1.11-1.97,2.53-2.18,4.24h-3.34c.26-2.47,1.29-4.56,3.1-6.28,1.81-1.72,4.28-2.58,7.39-2.58s5.75.88,7.59,2.63c1.84,1.75,2.75,4.13,2.75,7.12l.05,11.07c0,1.44.15,2.45.44,3.02.3.57.81.84,1.53.8v2.81c-.5,0-.95-.05-1.37-.14-2.23-.46-3.45-1.83-3.66-4.08-.72,1.25-1.95,2.3-3.69,3.15-1.74.85-3.63,1.27-5.67,1.27h0Zm.15-3c2.32,0,4.41-.7,6.26-2.11,1.84-1.41,2.77-3.03,2.77-4.88v-4.08l-7.05.5c-3.02.19-5.11.8-6.28,1.84-1.17,1.03-1.76,2.36-1.76,3.98,0,1.44.62,2.6,1.85,3.46,1.24.86,2.64,1.3,4.21,1.3h0Z"/>
  <path d="m141.44,51.77c-3.26,0-5.76-.85-7.5-2.53-1.74-1.69-2.67-3.54-2.8-5.56h3.1c.19,1.31.98,2.53,2.37,3.66,1.39,1.13,3,1.69,4.84,1.69s3.38-.5,4.63-1.5c1.25-1,1.88-2.27,1.88-3.81s-.62-2.74-1.88-3.52c-1.25-.78-3.06-1.37-5.41-1.77-2.57-.43-4.63-1.16-6.2-2.19-1.56-1.02-2.35-2.63-2.35-4.83s.92-4.11,2.74-5.46c1.83-1.35,3.97-2.03,6.42-2.03,2.89,0,5.14.62,6.77,1.87,1.63,1.25,2.58,3.07,2.85,5.45h-2.96c-.29-1.57-1.07-2.7-2.33-3.39-1.27-.69-2.51-1.05-3.73-1.08-1.67-.06-3.12.26-4.36.99-1.24.72-1.85,1.79-1.85,3.19s.58,2.54,1.74,3.19c1.16.66,2.83,1.15,4.99,1.49,6.05.95,9.07,3.55,9.07,7.81,0,2.32-.96,4.29-2.89,5.9s-4.32,2.41-7.17,2.41h0Z"/>
  <path d="m164.3,51.77c-3.26,0-5.75-.85-7.49-2.53-1.74-1.69-2.68-3.54-2.8-5.56h3.1c.19,1.31.98,2.53,2.37,3.66,1.39,1.13,3,1.69,4.84,1.69s3.38-.5,4.63-1.5c1.25-1,1.88-2.27,1.88-3.81s-.62-2.74-1.88-3.52c-1.25-.78-3.05-1.37-5.41-1.77-2.57-.43-4.63-1.16-6.2-2.19-1.56-1.02-2.35-2.63-2.35-4.83s.91-4.11,2.74-5.46c1.83-1.35,3.97-2.03,6.42-2.03,2.89,0,5.14.62,6.77,1.87,1.63,1.25,2.58,3.07,2.85,5.45h-2.96c-.29-1.57-1.07-2.7-2.33-3.39-1.27-.69-2.51-1.05-3.73-1.08-1.67-.06-3.12.26-4.35.99-1.24.72-1.85,1.79-1.85,3.19s.58,2.54,1.74,3.19c1.16.66,2.83,1.15,4.99,1.49,6.05.95,9.07,3.55,9.07,7.81,0,2.32-.96,4.29-2.89,5.9s-4.32,2.41-7.17,2.41h0Z"/>
  <path d="m191.77,24.02c3.67,0,6.65,1.29,8.94,3.87,2.29,2.58,3.43,5.83,3.43,9.77s-1.16,7.22-3.49,9.86c-2.33,2.64-5.33,3.96-9.02,3.96-4.11,0-7.29-1.69-9.55-5.07v17.22h-3.44V24.29h3.06l.38,4.66c2.17-3.28,5.4-4.93,9.7-4.93h0Zm-.48,24.41c2.82,0,5.1-1.03,6.85-3.1,1.74-2.07,2.61-4.62,2.61-7.66s-.86-5.66-2.59-7.71c-1.72-2.05-4.01-3.07-6.87-3.07-2.33,0-4.32.77-5.98,2.32-1.66,1.55-2.74,3.53-3.24,5.95v5.02c.5,2.44,1.58,4.42,3.24,5.96,1.66,1.54,3.65,2.31,5.98,2.31h0Z"/>
  <path d="m218.89,51.67c-3.79,0-6.88-1.33-9.3-4-2.41-2.67-3.62-5.97-3.62-9.91s1.21-7.25,3.62-9.92c2.41-2.67,5.51-4.01,9.3-4.01s6.93,1.34,9.34,4.01c2.4,2.67,3.61,5.98,3.61,9.92s-1.2,7.24-3.61,9.91c-2.41,2.67-5.52,4-9.34,4Zm-6.87-6.25c1.74,2.07,4.03,3.1,6.86,3.1s5.12-1.03,6.86-3.1c1.74-2.07,2.61-4.62,2.61-7.66s-.86-5.66-2.59-7.71c-1.72-2.05-4.01-3.07-6.87-3.07s-5.11,1.02-6.86,3.07c-1.75,2.05-2.62,4.62-2.62,7.71s.87,5.6,2.61,7.66h0Z"/>
  <path d="m249.43,24.02l-.05,2.96c-2.73-.26-5.02.4-6.89,1.97-1.87,1.57-2.8,3.82-2.8,6.75v15.64h-3.56v-27.05h3.06l.5,5.36c.37-.82.75-1.51,1.13-2.09.39-.58.94-1.18,1.66-1.83.72-.64,1.68-1.1,2.86-1.38,1.19-.28,2.55-.39,4.09-.33Z"/>
  <path d="m263.36,51.38c-4.73,0-7.1-2.25-7.1-6.75l.05-17.7h-4.14v-2.74h4.14v-9.75h3.44v9.75h6.06v2.79l-6.21-.05v17.22c0,.66.03,1.18.1,1.57.06.39.2.81.42,1.25.22.44.6.77,1.14.99.55.22,1.24.33,2.09.33h2.86v3.1h-2.86,0Z"/>
</svg>