<svg width="605" height="211" viewBox="0 0 605 211" fill="none" xmlns="http://www.w3.org/2000/svg">
<g clip-path="url(#clip0_1421_2)">
<path d="M71.7464 49.8557C67.1669 49.8557 63.4268 53.5851 63.4268 58.1595V78.9525C63.4268 81.2599 61.5736 83.1112 59.2637 83.1112C56.9538 83.1112 55.1006 81.2599 55.1006 78.9525V59.0784C55.1006 54.5643 56.3361 50.1173 58.6795 46.2538L78.8976 12.5826C81.241 8.65201 79.9719 3.55437 76.0371 1.17994C72.0351 -1.09388 67.5295 0.0396749 65.0115 3.54095C64.7496 3.60803 64.8571 3.60803 64.8302 3.66839L34.3185 49.3594C31.5587 53.4912 30.1285 58.2668 30.1285 63.2035V84.0502L6.68737 91.6095C3.27629 92.9778 1 96.1437 1 99.7322V124.67C1 127.494 3.20915 132.753 9.31955 132.753C10.038 132.753 10.7162 132.686 11.4011 132.491L58.0282 120.378C70.9809 116.903 80.0592 104.904 80.0592 91.4216V58.1662C80.0592 53.5918 76.3124 49.8557 71.7397 49.8557H71.7464ZM161.757 91.8643L138.323 84.0703V63.237C138.323 58.3004 136.893 53.5314 134.133 49.4063L103.621 3.70864C103.588 3.64156 103.46 3.64156 103.426 3.5812C100.922 0.0732118 96.1745 -1.05364 92.4076 1.18664C88.4727 3.55437 87.2037 8.65872 89.5471 12.6228L109.765 46.2673C112.129 50.1576 113.351 54.5711 113.351 59.1187V78.9928C113.351 81.3001 111.498 83.1514 109.188 83.1514C106.878 83.1514 105.025 81.3001 105.025 78.9928V57.9784C105.025 53.404 101.284 49.6746 96.705 49.6746C92.1256 49.6746 88.3855 53.4107 88.3855 57.7571V90.7777C88.3855 104.253 97.4571 116.266 110.423 119.975L157.044 132.773C157.722 132.927 158.447 133.035 159.125 133.035C165.236 133.035 167.445 127.514 167.445 124.952V100.014C167.445 96.2175 165.182 93.0247 161.751 91.8777L161.757 91.8643Z" fill="black"/>
<path d="M45.9012 167.303V166.437C45.9012 155.987 53.462 147.066 63.7759 145.349C70.4704 144.216 77.5478 146.436 82.4294 151.319L84.2289 153.11L85.8875 151.319C90.9034 146.436 97.8464 144.216 104.675 145.349C114.989 147.066 122.55 155.981 122.55 166.437V167.303C122.55 173.507 119.978 179.443 115.426 183.676L88.3719 208.902C87.2505 209.949 85.7666 210.532 84.2222 210.532C82.6778 210.532 81.2006 209.949 80.0725 208.902L53.0189 183.676C48.473 179.443 45.8945 173.507 45.8945 167.303H45.9012Z" fill="black"/>
<path d="M245 47H285.75C292.3 47 297.65 47.95 301.79 49.85C305.93 51.75 309.12 54.12 311.36 56.97C313.6 59.82 315.13 62.92 315.95 66.28C316.77 69.64 317.18 72.75 317.18 75.59C317.18 78.43 316.77 81.52 315.95 84.84C315.13 88.16 313.6 91.24 311.36 94.09C309.12 96.94 305.93 99.29 301.79 101.14C297.65 103 292.3 103.92 285.75 103.92H261.17V139.37H245V47ZM261.17 90.73H284.84C286.65 90.73 288.5 90.47 290.4 89.95C292.3 89.43 294.04 88.59 295.64 87.43C297.24 86.27 298.53 84.71 299.52 82.77C300.51 80.83 301.01 78.39 301.01 75.46C301.01 72.53 300.58 69.94 299.72 67.96C298.86 65.98 297.69 64.4 296.23 63.24C294.76 62.08 293.08 61.28 291.18 60.85C289.28 60.42 287.25 60.2 285.1 60.2H261.17V90.73Z" fill="black"/>
<path d="M329.22 72.4899H343.06V85.4299H343.32C343.75 83.6199 344.59 81.8499 345.84 80.1299C347.09 78.4099 348.6 76.8299 350.37 75.4099C352.14 73.9899 354.1 72.8399 356.26 71.9799C358.41 71.1199 360.61 70.6899 362.86 70.6899C364.58 70.6899 365.77 70.7299 366.42 70.8199C367.07 70.9099 367.73 70.9899 368.42 71.0799V85.3099C367.39 85.1399 366.33 84.9899 365.25 84.8599C364.17 84.7299 363.12 84.6699 362.08 84.6699C359.58 84.6699 357.23 85.1699 355.03 86.1599C352.83 87.1499 350.91 88.6199 349.27 90.5599C347.63 92.4999 346.34 94.8899 345.39 97.7399C344.44 100.59 343.97 103.86 343.97 107.57V139.39H329.22V72.4899Z" fill="black"/>
<path d="M430.77 124.49C430.77 126.3 431.01 127.59 431.48 128.37C431.95 129.15 432.88 129.53 434.26 129.53H435.81C436.41 129.53 437.1 129.45 437.88 129.27V139.49C437.36 139.66 436.69 139.86 435.88 140.07C435.06 140.28 434.22 140.48 433.36 140.65C432.5 140.82 431.63 140.95 430.77 141.04C429.91 141.12 429.17 141.17 428.57 141.17C425.55 141.17 423.05 140.57 421.07 139.36C419.09 138.15 417.79 136.04 417.19 133.02C414.26 135.87 410.66 137.94 406.39 139.23C402.12 140.52 398 141.17 394.04 141.17C391.02 141.17 388.13 140.76 385.37 139.94C382.61 139.12 380.17 137.91 378.06 136.32C375.95 134.73 374.26 132.7 373.02 130.24C371.77 127.78 371.14 124.92 371.14 121.64C371.14 117.5 371.89 114.14 373.4 111.55C374.91 108.96 376.89 106.94 379.35 105.47C381.81 104 384.57 102.95 387.63 102.3C390.69 101.65 393.78 101.16 396.88 100.81C399.55 100.29 402.1 99.93 404.51 99.71C406.92 99.5 409.06 99.13 410.91 98.61C412.76 98.09 414.23 97.3 415.31 96.22C416.39 95.14 416.93 93.53 416.93 91.37C416.93 89.47 416.48 87.92 415.57 86.71C414.66 85.5 413.54 84.58 412.21 83.93C410.87 83.28 409.38 82.85 407.75 82.64C406.11 82.43 404.56 82.32 403.09 82.32C398.95 82.32 395.54 83.18 392.87 84.91C390.2 86.64 388.69 89.31 388.34 92.93H373.59C373.85 88.62 374.88 85.04 376.69 82.19C378.5 79.34 380.81 77.06 383.61 75.33C386.41 73.61 389.58 72.4 393.12 71.71C396.66 71.02 400.28 70.67 403.99 70.67C407.27 70.67 410.5 71.02 413.69 71.71C416.88 72.4 419.75 73.52 422.29 75.07C424.83 76.62 426.88 78.63 428.44 81.09C429.99 83.55 430.77 86.55 430.77 90.08V124.49V124.49ZM416.02 105.86C413.78 107.33 411.02 108.21 407.74 108.51C404.46 108.81 401.18 109.27 397.91 109.87C396.36 110.13 394.85 110.5 393.38 110.97C391.91 111.44 390.62 112.09 389.5 112.91C388.38 113.73 387.49 114.81 386.85 116.14C386.2 117.48 385.88 119.1 385.88 120.99C385.88 122.63 386.35 124.01 387.3 125.13C388.25 126.25 389.39 127.14 390.73 127.78C392.07 128.43 393.53 128.88 395.13 129.14C396.73 129.4 398.17 129.53 399.46 129.53C401.1 129.53 402.87 129.32 404.76 128.88C406.66 128.45 408.45 127.72 410.13 126.68C411.81 125.64 413.21 124.33 414.33 122.73C415.45 121.13 416.01 119.17 416.01 116.84V105.84L416.02 105.86Z" fill="black"/>
<path d="M447.07 47H461.82V60.97H447.07V47ZM447.07 72.49H461.82V139.37H447.07V72.49Z" fill="black"/>
<path d="M488.98 117.89C489.41 122.2 491.05 125.22 493.9 126.95C496.75 128.68 500.15 129.54 504.12 129.54C505.5 129.54 507.07 129.43 508.84 129.22C510.61 129.01 512.27 128.6 513.82 127.99C515.37 127.39 516.64 126.5 517.64 125.34C518.63 124.18 519.08 122.65 519 120.75C518.91 118.85 518.22 117.3 516.93 116.09C515.64 114.88 513.97 113.91 511.95 113.18C509.92 112.45 507.62 111.82 505.03 111.3C502.44 110.78 499.81 110.22 497.14 109.62C494.38 109.02 491.73 108.28 489.18 107.42C486.64 106.56 484.35 105.39 482.32 103.93C480.29 102.47 478.68 100.59 477.47 98.3001C476.26 96.0201 475.66 93.1901 475.66 89.8301C475.66 86.2101 476.54 83.1701 478.31 80.7101C480.08 78.2501 482.32 76.2701 485.04 74.7601C487.76 73.2501 490.77 72.2001 494.1 71.5901C497.42 70.9901 500.59 70.6801 503.61 70.6801C507.06 70.6801 510.36 71.0501 513.51 71.7801C516.66 72.5101 519.5 73.7001 522.05 75.3401C524.59 76.9801 526.71 79.1101 528.39 81.7401C530.07 84.3701 531.13 87.5401 531.56 91.2501H516.17C515.48 87.7101 513.86 85.3401 511.32 84.1301C508.78 82.9201 505.86 82.3201 502.59 82.3201C501.55 82.3201 500.33 82.4101 498.9 82.5801C497.48 82.7501 496.14 83.0801 494.89 83.5501C493.64 84.0301 492.58 84.7101 491.72 85.6201C490.86 86.5301 490.43 87.7101 490.43 89.1801C490.43 90.9901 491.05 92.4601 492.31 93.5801C493.56 94.7001 495.2 95.6301 497.23 96.3601C499.26 97.0901 501.56 97.7201 504.15 98.2401C506.74 98.7601 509.41 99.3201 512.17 99.9201C514.84 100.52 517.47 101.26 520.06 102.12C522.65 102.98 524.95 104.15 526.98 105.61C529.01 107.08 530.64 108.93 531.9 111.17C533.15 113.41 533.78 116.17 533.78 119.45C533.78 123.42 532.87 126.78 531.06 129.54C529.25 132.3 526.9 134.54 524.01 136.27C521.12 138 517.91 139.25 514.37 140.02C510.83 140.8 507.34 141.19 503.89 141.19C499.66 141.19 495.76 140.71 492.18 139.77C488.6 138.82 485.5 137.38 482.87 135.44C480.24 133.5 478.17 131.09 476.66 128.19C475.15 125.3 474.35 121.87 474.27 117.91H489.02L488.98 117.89Z" fill="black"/>
<path d="M556.51 109.74C556.51 112.33 556.88 114.83 557.61 117.24C558.34 119.66 559.44 121.77 560.91 123.58C562.38 125.39 564.23 126.84 566.47 127.91C568.71 128.99 571.39 129.53 574.49 129.53C578.8 129.53 582.27 128.6 584.9 126.75C587.53 124.9 589.49 122.12 590.79 118.41H604.76C603.98 122.03 602.65 125.27 600.75 128.11C598.85 130.96 596.57 133.35 593.89 135.29C591.22 137.23 588.22 138.7 584.9 139.69C581.58 140.68 578.11 141.18 574.49 141.18C569.23 141.18 564.57 140.32 560.52 138.59C556.46 136.87 553.04 134.45 550.23 131.35C547.43 128.25 545.31 124.54 543.89 120.22C542.47 115.91 541.76 111.17 541.76 105.99C541.76 101.25 542.51 96.74 544.02 92.47C545.53 88.2 547.68 84.45 550.49 81.22C553.29 77.99 556.68 75.42 560.65 73.52C564.62 71.62 569.1 70.67 574.1 70.67C579.36 70.67 584.08 71.77 588.27 73.97C592.45 76.17 595.92 79.08 598.68 82.7C601.44 86.32 603.44 90.48 604.7 95.18C605.95 99.88 606.27 104.73 605.67 109.73H556.51V109.74ZM590.92 100.04C590.75 97.71 590.25 95.47 589.43 93.31C588.61 91.15 587.49 89.28 586.07 87.68C584.65 86.09 582.92 84.79 580.9 83.8C578.87 82.81 576.61 82.31 574.11 82.31C571.61 82.31 569.17 82.76 567.06 83.67C564.95 84.58 563.14 85.83 561.63 87.42C560.12 89.02 558.91 90.89 558.01 93.05C557.1 95.21 556.61 97.54 556.52 100.04H590.93H590.92Z" fill="black"/>
</g>
<defs>
<clipPath id="clip0_1421_2">
<rect width="605" height="211" fill="white"/>
</clipPath>
</defs>
</svg>
