<?xml version="1.0" encoding="utf-8"?>
<!-- Generator: Adobe Illustrator 27.5.0, SVG Export Plug-In . SVG Version: 6.00 Build 0)  -->
<svg version="1.1" id="Layer_1" xmlns="http://www.w3.org/2000/svg" xmlns:xlink="http://www.w3.org/1999/xlink" x="0px" y="0px"
	 viewBox="0 0 219.2 41.4" style="enable-background:new 0 0 219.2 41.4;" xml:space="preserve">
<style type="text/css">
	.st0{clip-path:url(#SVGID_00000110429209396209439690000011906724764954327438_);}
</style>
<g>
	<defs>
		<rect id="SVGID_1_" x="-16.4" y="-17.8" width="254" height="80"/>
	</defs>
	<clipPath id="SVGID_00000173849549599691455520000000675337749818421121_">
		<use xlink:href="#SVGID_1_"  style="overflow:visible;"/>
	</clipPath>
	<g style="clip-path:url(#SVGID_00000173849549599691455520000000675337749818421121_);">
		<path d="M49.7,31.2V9.4h8.2c1.7,0,3.1,0.3,4.2,0.9c1.1,0.6,2,1.4,2.6,2.5c0.6,1,0.9,2.3,0.9,3.7c0,1.4-0.3,2.6-0.9,3.6
			c-0.6,1-1.5,1.8-2.6,2.4c-1.2,0.6-2.6,0.8-4.2,0.8H52v-3.3h5.3c1,0,1.8-0.1,2.4-0.4c0.6-0.3,1.1-0.7,1.4-1.2
			c0.3-0.5,0.5-1.2,0.5-2c0-0.8-0.2-1.4-0.5-2c-0.3-0.6-0.8-1-1.4-1.3c-0.6-0.3-1.4-0.4-2.4-0.4h-3.6v18.5H49.7z M61,21.3l5.4,9.9
			H62l-5.3-9.9H61z M76.1,31.5c-1.6,0-3.1-0.3-4.3-1c-1.2-0.7-2.1-1.7-2.7-2.9c-0.6-1.3-1-2.8-1-4.5c0-1.7,0.3-3.2,1-4.4
			c0.6-1.3,1.5-2.3,2.7-3c1.2-0.7,2.5-1.1,4.1-1.1c1,0,2,0.2,2.9,0.5c0.9,0.3,1.7,0.8,2.4,1.5c0.7,0.7,1.2,1.5,1.6,2.6
			c0.4,1,0.6,2.3,0.6,3.7V24H70v-2.6h9.7c0-0.7-0.2-1.4-0.5-2c-0.3-0.6-0.7-1-1.3-1.4c-0.6-0.3-1.2-0.5-1.9-0.5
			c-0.8,0-1.5,0.2-2.1,0.6c-0.6,0.4-1.1,0.9-1.4,1.5c-0.3,0.6-0.5,1.3-0.5,2v2.3c0,1,0.2,1.8,0.5,2.5c0.3,0.7,0.8,1.2,1.5,1.6
			c0.6,0.4,1.4,0.5,2.2,0.5c0.6,0,1.1-0.1,1.5-0.2c0.5-0.2,0.8-0.4,1.2-0.7s0.6-0.7,0.8-1.2l3.6,0.4c-0.2,1-0.7,1.8-1.3,2.5
			c-0.6,0.7-1.4,1.2-2.4,1.6C78.5,31.3,77.4,31.5,76.1,31.5z M93.8,37.6c-1.4,0-2.6-0.2-3.6-0.6c-1-0.4-1.8-0.9-2.4-1.5
			c-0.6-0.6-1-1.3-1.3-2.1l3.5-0.8c0.2,0.3,0.4,0.6,0.7,0.9c0.3,0.3,0.7,0.6,1.2,0.8c0.5,0.2,1.2,0.3,1.9,0.3c1.1,0,2-0.3,2.7-0.8
			c0.7-0.5,1.1-1.4,1.1-2.6v-3.1h-0.2c-0.2,0.4-0.5,0.8-0.9,1.2c-0.4,0.4-0.9,0.8-1.5,1.1c-0.6,0.3-1.4,0.4-2.3,0.4
			c-1.3,0-2.4-0.3-3.4-0.9c-1-0.6-1.8-1.5-2.4-2.7c-0.6-1.2-0.9-2.7-0.9-4.5c0-1.8,0.3-3.3,0.9-4.5c0.6-1.2,1.4-2.2,2.4-2.8
			c1-0.6,2.2-1,3.4-1c1,0,1.7,0.2,2.4,0.5c0.6,0.3,1.1,0.7,1.5,1.2c0.4,0.4,0.7,0.9,0.8,1.3h0.2v-2.7h3.8v16.6c0,1.4-0.3,2.6-1,3.5
			c-0.7,0.9-1.6,1.6-2.7,2.1C96.5,37.4,95.2,37.6,93.8,37.6z M93.8,27.9c0.8,0,1.5-0.2,2.1-0.6c0.6-0.4,1-1,1.3-1.7
			c0.3-0.7,0.4-1.6,0.4-2.7c0-1-0.1-1.9-0.4-2.7c-0.3-0.8-0.7-1.4-1.3-1.8c-0.6-0.4-1.3-0.6-2.1-0.6c-0.9,0-1.6,0.2-2.2,0.7
			c-0.6,0.4-1,1.1-1.3,1.8c-0.3,0.8-0.4,1.7-0.4,2.6c0,1,0.1,1.9,0.4,2.6c0.3,0.7,0.7,1.3,1.3,1.7C92.2,27.7,92.9,27.9,93.8,27.9z
			 M112.6,31.5c-1.6,0-3.1-0.3-4.2-1c-1.2-0.7-2.1-1.7-2.7-2.9c-0.6-1.3-1-2.8-1-4.5c0-1.7,0.3-3.2,1-4.4c0.6-1.3,1.5-2.3,2.7-3
			c1.2-0.7,2.5-1.1,4.1-1.1c1,0,2,0.2,2.9,0.5c0.9,0.3,1.7,0.8,2.4,1.5c0.7,0.7,1.2,1.5,1.6,2.6c0.4,1,0.6,2.3,0.6,3.7V24h-13.4
			v-2.6h9.7c0-0.7-0.2-1.4-0.5-2c-0.3-0.6-0.8-1-1.3-1.4c-0.6-0.3-1.2-0.5-1.9-0.5c-0.8,0-1.5,0.2-2.1,0.6c-0.6,0.4-1.1,0.9-1.4,1.5
			c-0.3,0.6-0.5,1.3-0.5,2v2.3c0,1,0.2,1.8,0.5,2.5c0.3,0.7,0.8,1.2,1.5,1.6c0.6,0.4,1.4,0.5,2.2,0.5c0.6,0,1.1-0.1,1.5-0.2
			c0.5-0.2,0.8-0.4,1.2-0.7c0.3-0.3,0.6-0.7,0.8-1.2l3.6,0.4c-0.2,1-0.7,1.8-1.3,2.5c-0.6,0.7-1.4,1.2-2.4,1.6
			C115,31.3,113.9,31.5,112.6,31.5z M127,21.6v9.6h-3.9V14.8h3.7v2.8h0.2c0.4-0.9,1-1.6,1.8-2.2c0.8-0.5,1.9-0.8,3.1-0.8
			c1.1,0,2.1,0.2,3,0.7c0.8,0.5,1.5,1.2,2,2.1c0.5,0.9,0.7,2,0.7,3.3v10.4h-3.9v-9.8c0-1.1-0.3-1.9-0.9-2.6
			c-0.6-0.6-1.3-0.9-2.3-0.9c-0.7,0-1.3,0.1-1.8,0.4c-0.5,0.3-0.9,0.7-1.2,1.3C127.2,20.1,127,20.8,127,21.6z M154.2,14.8
			c-0.1-1.2-0.7-2.2-1.6-2.9c-1-0.7-2.1-1.1-3.6-1.1c-1,0-1.9,0.2-2.7,0.5c-0.8,0.3-1.4,0.8-1.8,1.4c-0.4,0.6-0.7,1.3-0.7,2.1
			c0,0.6,0.1,1.1,0.4,1.5c0.2,0.4,0.6,0.8,1,1.1c0.4,0.3,0.9,0.6,1.4,0.8c0.5,0.2,1,0.4,1.6,0.6l2.3,0.7c0.7,0.2,1.4,0.4,2.1,0.7
			c0.7,0.3,1.3,0.7,1.9,1.1c0.6,0.4,1,1,1.4,1.7c0.4,0.6,0.5,1.4,0.5,2.3c0,1.2-0.3,2.2-0.9,3.1c-0.6,0.9-1.5,1.7-2.6,2.2
			c-1.1,0.5-2.5,0.8-4.1,0.8c-1.5,0-2.8-0.2-3.9-0.7c-1.1-0.5-2-1.2-2.6-2.1s-1-1.9-1.1-3h2c0.1,0.9,0.4,1.6,0.9,2.2
			c0.5,0.6,1.1,1.1,1.9,1.4c0.8,0.3,1.7,0.5,2.7,0.5c1.1,0,2.1-0.2,2.9-0.5c0.9-0.4,1.5-0.9,2-1.5c0.5-0.7,0.7-1.4,0.7-2.3
			c0-0.7-0.2-1.4-0.6-1.9c-0.4-0.5-0.9-0.9-1.6-1.3c-0.7-0.3-1.5-0.6-2.4-0.9l-2.6-0.8c-1.7-0.5-3-1.2-4-2.1
			c-0.9-0.9-1.4-2.1-1.4-3.5c0-1.2,0.3-2.2,0.9-3.1c0.6-0.9,1.5-1.6,2.6-2.1c1.1-0.5,2.3-0.8,3.6-0.8c1.4,0,2.6,0.2,3.6,0.7
			c1,0.5,1.9,1.2,2.5,2.1c0.6,0.9,0.9,1.9,1,3H154.2z M167.2,31.5c-1.5,0-2.7-0.4-3.8-1.1c-1.1-0.7-1.9-1.7-2.5-3
			c-0.6-1.3-0.9-2.7-0.9-4.3c0-1.6,0.3-3.1,0.9-4.4c0.6-1.3,1.5-2.3,2.5-3c1.1-0.7,2.3-1.1,3.8-1.1c1.1,0,2.1,0.2,3,0.6
			c0.9,0.4,1.6,1,2.2,1.8c0.6,0.8,0.9,1.6,1.1,2.7h-1.9c-0.2-0.9-0.7-1.7-1.4-2.4c-0.8-0.7-1.7-1-2.9-1c-1,0-2,0.3-2.8,0.9
			c-0.8,0.6-1.4,1.3-1.9,2.4c-0.4,1-0.7,2.2-0.7,3.5c0,1.3,0.2,2.5,0.7,3.5c0.4,1,1.1,1.8,1.9,2.4c0.8,0.6,1.7,0.9,2.8,0.9
			c0.7,0,1.4-0.1,2-0.4c0.6-0.3,1.1-0.7,1.5-1.2c0.4-0.5,0.7-1.1,0.8-1.8h1.9c-0.1,1-0.5,1.9-1.1,2.6c-0.6,0.8-1.3,1.4-2.2,1.8
			C169.4,31.3,168.4,31.5,167.2,31.5z M183.9,31.5c-1.4,0-2.7-0.4-3.8-1.1c-1.1-0.7-1.9-1.7-2.5-3c-0.6-1.3-0.9-2.7-0.9-4.4
			c0-1.7,0.3-3.1,0.9-4.4c0.6-1.3,1.5-2.3,2.5-3c1.1-0.7,2.3-1.1,3.8-1.1c1.4,0,2.7,0.4,3.7,1.1c1.1,0.7,1.9,1.7,2.5,3
			c0.6,1.3,0.9,2.7,0.9,4.4c0,1.7-0.3,3.1-0.9,4.4c-0.6,1.3-1.5,2.3-2.5,3C186.6,31.2,185.3,31.5,183.9,31.5z M183.9,29.8
			c1.1,0,2.1-0.3,2.9-0.9c0.8-0.6,1.4-1.4,1.8-2.4c0.4-1,0.6-2.1,0.6-3.4c0-1.2-0.2-2.3-0.6-3.4c-0.4-1-1-1.8-1.8-2.5
			s-1.8-0.9-2.9-0.9c-1.1,0-2.1,0.3-2.9,0.9c-0.8,0.6-1.4,1.4-1.8,2.5c-0.4,1-0.6,2.1-0.6,3.4c0,1.2,0.2,2.3,0.6,3.4
			c0.4,1,1,1.8,1.8,2.4C181.8,29.5,182.8,29.8,183.9,29.8z M195.3,31.2V14.8h1.8v2.5h0.1c0.3-0.8,0.9-1.5,1.7-2
			c0.8-0.5,1.7-0.8,2.8-0.8c0.2,0,0.3,0,0.5,0c0.2,0,0.4,0,0.5,0v1.9c-0.1,0-0.2,0-0.4-0.1c-0.2,0-0.4,0-0.7,0
			c-0.9,0-1.6,0.2-2.3,0.5c-0.7,0.4-1.2,0.8-1.6,1.5c-0.4,0.6-0.6,1.4-0.6,2.2v10.6H195.3z M212.1,31.5c-1.5,0-2.8-0.4-4-1.1
			c-1.1-0.7-2-1.7-2.6-3c-0.6-1.3-0.9-2.7-0.9-4.4c0-1.6,0.3-3.1,0.9-4.4c0.6-1.3,1.5-2.3,2.5-3c1.1-0.7,2.3-1.1,3.7-1.1
			c0.9,0,1.7,0.2,2.6,0.5c0.8,0.3,1.6,0.8,2.2,1.5c0.7,0.7,1.2,1.5,1.6,2.5c0.4,1,0.6,2.2,0.6,3.6v0.9h-12.8v-1.7h10.8
			c0-1.1-0.2-2-0.6-2.8c-0.4-0.8-1-1.5-1.8-2c-0.7-0.5-1.6-0.7-2.6-0.7c-1,0-1.9,0.3-2.7,0.8c-0.8,0.6-1.4,1.3-1.9,2.2
			c-0.4,0.9-0.7,1.9-0.7,3v1c0,1.3,0.2,2.4,0.7,3.4c0.5,1,1.1,1.7,1.9,2.2s1.8,0.8,3,0.8c0.8,0,1.5-0.1,2-0.4c0.6-0.2,1.1-0.6,1.5-1
			c0.4-0.4,0.7-0.9,0.9-1.4l1.8,0.6c-0.2,0.7-0.7,1.3-1.2,1.9c-0.6,0.6-1.3,1.1-2.1,1.4C214.1,31.3,213.2,31.5,212.1,31.5z"/>
		<path d="M0.6,23.1C1.1,33.8,11,39,15.9,40.2c-3.9-4.7-7.2-9.8-7.2-17.3c0-6,4.2-12.4,4.2-12.4l-3.3-0.2c1.2-3.3,5.2-6.1,7-7.1
			C11,5.3,0.1,12.3,0.6,23.1z"/>
		<path d="M17.1,10.6c-2.9,6.6-0.8,15.2,0.6,18.6c2.4-1.2,7.8-5,10.6-11.1c2.8-6.1,2.5-13.4,1.9-16.2c-0.9-0.9-5.2-1.1-7.1,0.4
			C21,4,20.6,8.9,21,11L17.1,10.6z"/>
		<path d="M28.4,36.4c-3.3,2.7-8.4,3.4-10.6,3.4c0.3-1.4,1.5-4.8,4.5-7.3c3-2.5,7.2-3.8,8.8-4.2c0.6,0.2,1.5,2.3,1,3.5
			C31.5,33.2,29.6,36.1,28.4,36.4z"/>
	</g>
</g>
</svg>
