<?xml version="1.0" encoding="UTF-8"?>
<svg id="Layer_1" data-name="Layer 1" xmlns="http://www.w3.org/2000/svg" xmlns:xlink="http://www.w3.org/1999/xlink" viewBox="0 0 639.65 140.3">
  <defs>
    <style>
      .cls-1 {
        fill: none;
      }

      .cls-2 {
        fill: #ebecf6;
        stroke: #fff;
        stroke-miterlimit: 10;
        stroke-width: 5px;
      }

      .cls-3 {
        clip-path: url(#clippath);
      }

      .cls-4 {
        fill: #fff;
      }

      .cls-5 {
        fill: #eceef7;
      }

      .cls-6 {
        fill: #7c8db1;
      }

      .cls-7 {
        fill: #d2d2d1;
      }

      .cls-8 {
        fill: #c3c9d9;
      }

      .cls-9 {
        fill: #36383d;
      }

      .cls-10 {
        fill: #7082ac;
      }

      .cls-11 {
        fill: #465b94;
        font-family: ArialMT, Arial;
        font-size: 85.29px;
      }

      .cls-12 {
        clip-path: url(#clippath-1);
      }

      .cls-13 {
        clip-path: url(#clippath-4);
      }

      .cls-14 {
        clip-path: url(#clippath-3);
      }

      .cls-15 {
        clip-path: url(#clippath-2);
      }

      .cls-16 {
        clip-path: url(#clippath-7);
      }

      .cls-17 {
        clip-path: url(#clippath-8);
      }

      .cls-18 {
        clip-path: url(#clippath-6);
      }

      .cls-19 {
        clip-path: url(#clippath-5);
      }

      .cls-20 {
        clip-path: url(#clippath-9);
      }

      .cls-21 {
        opacity: .5;
      }
    </style>
    <clipPath id="clippath">
      <rect class="cls-1" x="34.43" y="25.64" width="93.6" height="82.8"/>
    </clipPath>
    <clipPath id="clippath-1">
      <rect class="cls-1" x="34.43" y="25.64" width="93.6" height="82.8"/>
    </clipPath>
    <clipPath id="clippath-2">
      <rect class="cls-1" x="34.43" y="25.64" width="93.6" height="82.8"/>
    </clipPath>
    <clipPath id="clippath-3">
      <rect class="cls-1" x="34.43" y="25.64" width="93.6" height="82.8"/>
    </clipPath>
    <clipPath id="clippath-4">
      <rect class="cls-1" x="34.43" y="25.64" width="93.6" height="82.8"/>
    </clipPath>
    <clipPath id="clippath-5">
      <rect class="cls-1" x="34.43" y="25.64" width="93.6" height="82.8"/>
    </clipPath>
    <clipPath id="clippath-6">
      <rect class="cls-1" x="34.43" y="25.64" width="93.6" height="82.8"/>
    </clipPath>
    <clipPath id="clippath-7">
      <rect class="cls-1" x="34.43" y="25.64" width="93.6" height="82.8"/>
    </clipPath>
    <clipPath id="clippath-8">
      <rect class="cls-1" x="65.63" y="67.34" width="3.7" height="32.1"/>
    </clipPath>
    <clipPath id="clippath-9">
      <rect class="cls-1" x="34.43" y="25.64" width="93.6" height="82.8"/>
    </clipPath>
  </defs>
  <rect class="cls-8" width="639.65" height="140.3" rx="12" ry="12"/>
  <rect class="cls-2" x="8.98" y="7.74" width="621.69" height="124.83" rx="12" ry="12"/>
  <g class="cls-3">
    <g class="cls-12">
      <g>
        <g class="cls-15">
          <path class="cls-9" d="m125.33,70.94c4.7-4.7,3.3-14.3-4.9-14.3h-21.6c.8-4.6,2-12.2,2-12.9-.5-6.8-4.8-15-5-15.4-.8-1.5-4.8-3.5-8.8-2.6-5.2,1.1-5.7,4.4-5.7,5.3,0,0,.2,9,.2,11.4-2.5,5.4-11,19.7-13.6,20.8-.6-.4-1.3-.6-2.1-.6h-27.2c-2.3,0-4.2,1.9-4.2,4.2h0v37.7c.2,2,1.9,3.6,3.9,3.6h24.5c2.2,0,3.9-1.8,3.9-3.9v-1.3s.9-.1,1.3.2c1.6,1,3.5,2.3,6.1,2.3h36.6c13.7,0,12.2-12.1,11-13.8,2.3-2.5,3.7-7,1.8-10.5,1.6-1.4,4.2-5.7,1.8-10.2"/>
        </g>
        <g class="cls-14">
          <path class="cls-4" d="m119.83,60.64h-25.8c1-4,2.8-16.5,2.8-16.5-.4-6.2-4.5-13.9-4.5-13.9-4.9-2-7,.8-7,.8,0,0,.3,9.7.3,12s-11.1,20.2-13.8,22.5c-1.4,1.2-4,2.9-6.1,4.2v29h1.7c1.9,0,4.3,3,7,3h37.2c7.5,0,8.7-8.4,3.7-9.2l.2-.9c4.7-.5,7.6-8,1.6-9.5l.2-.9c4.5-.5,7.9-7.7,1.6-9.5l.2-.9c5.8-1.2,7-10.2.7-10.2"/>
        </g>
        <g class="cls-13">
          <path class="cls-5" d="m118.73,71.54l.2-.9c5.9-.9,7.1-10,.8-10h-12.5c6.3,0,5.1,9.1-.8,10l-.1.6c6.3,1.8,2.8,9.4-1.7,9.9l-.1.6c6,1.5,3,9.4-1.7,9.9l-.1.6c4.9.8,3.6,9.6-3.9,9.6h-24.8,37.3c7.5,0,8.7-8.4,3.7-9.2l.2-.9c4.7-.5,7.6-8,1.6-9.5l.2-.9c4.7-.8,8-8,1.7-9.8"/>
        </g>
        <g class="cls-19">
          <path class="cls-10" d="m38.43,66.74h24.6v37.6h-24.6v-37.6Z"/>
        </g>
        <g class="cls-18">
          <path class="cls-6" d="m38.43,104.44h24.6v-37.7h-24.6v37.7Zm23-1.6h-21.4v-31.2h21.4s0,31.2,0,31.2Z"/>
        </g>
        <g class="cls-16">
          <g class="cls-21">
            <g class="cls-17">
              <path class="cls-7" d="m69.33,99.44v-32.1c-.1,0-3.4,2.2-3.7,2.4v29h1.7c.6,0,1.3.3,2,.7"/>
            </g>
          </g>
        </g>
        <g class="cls-20">
          <path class="cls-5" d="m88.93,29.54h0c0,.1,3,11.3,3,12.9s-9.2,15.3-7.9,17c1.7,2.4,10,1.2,10,1.2,1-4,2.8-16.5,2.8-16.5-.4-6.2-4.5-13.9-4.5-13.9-.1,0-1.5-.7-3.4-.7"/>
        </g>
      </g>
    </g>
  </g>
  <text class="cls-11" transform="translate(150.35 101.73)"><tspan x="0" y="0">Click to Like</tspan></text>
</svg>