<?xml version="1.0" encoding="UTF-8"?>
<svg id="Layer_1" data-name="Layer 1" xmlns="http://www.w3.org/2000/svg" viewBox="0 0 1363.76 98.26">
  <defs>
    <style>
      .cls-1 {
        fill: #7c8db1;
        opacity: .64;
      }
    </style>
  </defs>
  <rect class="cls-1" x="1074.4" y="49.87" width="21.18" height="21.18" transform="translate(2169.97 120.92) rotate(180)"/>
  <rect class="cls-1" x="1335.59" y="69.36" width="21.18" height="21.18" transform="translate(2692.36 159.89) rotate(180)"/>
  <rect class="cls-1" x="1343.64" y="79.95" width="21.18" height="21.18" transform="translate(2708.45 181.07) rotate(180)"/>
  <rect class="cls-1" x="1333.05" y="14.88" width="21.18" height="21.18" transform="translate(2687.28 50.95) rotate(180)"/>
  <rect class="cls-1" x="1202.55" y="26.99" width="21.18" height="21.18" transform="translate(2426.28 75.15) rotate(180)"/>
  <rect class="cls-1" x="1259.78" y="75" width="21.18" height="21.18" transform="translate(2540.74 171.18) rotate(180)"/>
  <rect class="cls-1" x="1154.15" y="26.99" width="21.18" height="21.18" transform="translate(2329.48 75.15) rotate(180)"/>
  <rect class="cls-1" x="997.51" y="36.02" width="21.18" height="21.18" transform="translate(2016.2 93.21) rotate(180)"/>
  <rect class="cls-1" x="1337.66" y="33.85" width="21.18" height="21.18" transform="translate(2696.5 88.88) rotate(180)"/>
  <rect class="cls-1" x="1319.59" y="31.59" width="21.18" height="21.18" transform="translate(2660.36 84.36) rotate(180)"/>
  <rect class="cls-1" x="1313.57" y="67.36" width="21.18" height="21.18" transform="translate(2648.31 155.89) rotate(180)"/>
  <rect class="cls-1" x="1272.91" y="42.18" width="21.18" height="21.18" transform="translate(2566.99 105.54) rotate(180)"/>
  <rect class="cls-1" x="1200.37" y="9.2" width="21.18" height="21.18" transform="translate(2421.92 39.57) rotate(180)"/>
  <rect class="cls-1" x="1124.56" y="14.84" width="21.18" height="21.18" transform="translate(2270.3 50.86) rotate(180)"/>
  <rect class="cls-1" x="1165.93" y="33.85" width="21.18" height="21.18" transform="translate(2353.03 88.88) rotate(180)"/>
  <rect class="cls-1" x="1085.36" y="16.4" width="21.18" height="21.18" transform="translate(2191.89 53.97) rotate(180)"/>
  <rect class="cls-1" x="1249.19" y="29.76" width="21.18" height="21.18" transform="translate(2519.56 80.69) rotate(180)"/>
  <rect class="cls-1" x="1278.04" y="5.81" width="21.18" height="21.18" transform="translate(2577.27 32.8) rotate(180)"/>
  <rect class="cls-1" x="1122.77" y="82.13" width="21.18" height="21.18" transform="translate(2266.71 185.43) rotate(180)"/>
  <rect class="cls-1" x="1181.64" y="76.74" width="21.18" height="21.18" transform="translate(2384.45 174.65) rotate(180)"/>
  <rect class="cls-1" x="1348.25" y="52.77" width="21.18" height="21.18" transform="translate(2717.68 126.71) rotate(180)"/>
  <rect class="cls-1" x="1299.81" y="75" width="21.18" height="21.18" transform="translate(2620.81 171.18) rotate(180)"/>
  <rect class="cls-1" x="1298.72" y="49.87" width="21.18" height="21.18" transform="translate(2618.62 120.92) rotate(180)"/>
  <rect class="cls-1" x="1225.69" y="63.36" width="21.18" height="21.18" transform="translate(2472.55 147.89) rotate(180)"/>
  <rect class="cls-1" x="957.91" y="9.2" width="21.18" height="21.18" transform="translate(1937 39.57) rotate(180)"/>
  <rect class="cls-1" x="722.12" y="25.43" width="21.18" height="21.18" transform="translate(1465.41 72.04) rotate(180)"/>
  <rect class="cls-1" x="886.87" y="64.41" width="21.18" height="21.18" transform="translate(1794.91 150) rotate(180)"/>
  <rect class="cls-1" x="840.88" y="29.76" width="21.18" height="21.18" transform="translate(1702.93 80.69) rotate(180)"/>
</svg>