<?xml version="1.0" encoding="UTF-8"?>
<svg id="Layer_1" data-name="Layer 1" xmlns="http://www.w3.org/2000/svg" viewBox="0 0 1363.76 196.52">
  <defs>
    <style>
      .cls-1 {
        fill: #7c8db1;
        opacity: .2;
      }
    </style>
  </defs>
  <rect class="cls-1" x="-1.39" y="-8" width="21.18" height="21.18"/>
  <rect class="cls-1" x="-1.39" y="18.51" width="21.18" height="21.18"/>
  <rect class="cls-1" x="21.58" y="18.51" width="21.18" height="21.18"/>
  <rect class="cls-1" x="38.47" y="49.43" width="21.18" height="21.18"/>
  <rect class="cls-1" x="56.54" y="51.69" width="21.18" height="21.18"/>
  <rect class="cls-1" x="62.56" y="15.93" width="21.18" height="21.18"/>
  <rect class="cls-1" x="103.22" y="41.1" width="21.18" height="21.18"/>
  <rect class="cls-1" x="126.94" y="53.53" width="21.18" height="21.18"/>
  <rect class="cls-1" x="36.87" y="25.23" width="21.18" height="21.18"/>
  <rect class="cls-1" x="105.76" y="95.58" width="21.18" height="21.18"/>
  <rect class="cls-1" x="49.06" y="95.58" width="21.18" height="21.18"/>
  <rect class="cls-1" x="-5.15" y="51.69" width="21.18" height="21.18"/>
  <rect class="cls-1" x="-5.15" y="78.21" width="21.18" height="21.18"/>
  <rect class="cls-1" x="17.81" y="78.21" width="21.18" height="21.18"/>
  <rect class="cls-1" x="34.71" y="109.12" width="21.18" height="21.18"/>
  <rect class="cls-1" x="52.78" y="111.38" width="21.18" height="21.18"/>
  <rect class="cls-1" x="58.8" y="75.62" width="21.18" height="21.18"/>
  <rect class="cls-1" x="79.15" y="132.56" width="21.18" height="21.18"/>
  <rect class="cls-1" x="99.46" y="100.79" width="21.18" height="21.18"/>
  <rect class="cls-1" x="123.18" y="113.22" width="21.18" height="21.18"/>
  <rect class="cls-1" x="33.11" y="84.92" width="21.18" height="21.18"/>
  <rect class="cls-1" x="102" y="155.27" width="21.18" height="21.18"/>
  <rect class="cls-1" x="45.29" y="155.27" width="21.18" height="21.18"/>
  <rect class="cls-1" x="89.74" y="-12.94" width="21.18" height="21.18"/>
  <rect class="cls-1" x="89.74" y="13.57" width="21.18" height="21.18"/>
  <rect class="cls-1" x="112.71" y="13.57" width="21.18" height="21.18"/>
  <rect class="cls-1" x="129.6" y="44.49" width="21.18" height="21.18"/>
  <rect class="cls-1" x="147.67" y="46.75" width="21.18" height="21.18"/>
  <rect class="cls-1" x="153.69" y="10.98" width="21.18" height="21.18"/>
  <rect class="cls-1" x="194.35" y="36.16" width="21.18" height="21.18"/>
  <rect class="cls-1" x="218.07" y="48.58" width="21.18" height="21.18"/>
  <rect class="cls-1" x="258.35" y="73.31" width="21.18" height="21.18"/>
  <rect class="cls-1" x="5.44" y="123.81" width="21.18" height="21.18"/>
  <rect class="cls-1" x="66.54" y="37.6" width="21.18" height="21.18"/>
  <rect class="cls-1" x="140.19" y="90.63" width="21.18" height="21.18"/>
  <rect class="cls-1" x="89.74" y="64.37" width="21.18" height="21.18"/>
  <rect class="cls-1" x="206.56" y="37.81" width="21.18" height="21.18"/>
  <rect class="cls-1" x="230.28" y="50.23" width="21.18" height="21.18"/>
  <rect class="cls-1" x="270.56" y="74.96" width="21.18" height="21.18"/>
  <rect class="cls-1" x="78.75" y="39.25" width="21.18" height="21.18"/>
  <rect class="cls-1" x="52.14" y="76.24" width="21.18" height="21.18"/>
  <rect class="cls-1" x="72.45" y="44.47" width="21.18" height="21.18"/>
  <rect class="cls-1" x="96.16" y="56.89" width="21.18" height="21.18"/>
  <rect class="cls-1" x="176.51" y="98.54" width="21.18" height="21.18"/>
  <rect class="cls-1" x="190.69" y="71.1" width="21.18" height="21.18"/>
  <rect class="cls-1" x="169.51" y="113.15" width="21.18" height="21.18"/>
  <rect class="cls-1" x="163.21" y="118.37" width="21.18" height="21.18"/>
  <rect class="cls-1" x="186.92" y="130.79" width="21.18" height="21.18"/>
  <rect class="cls-1" x="470.16" y="141.38" width="21.18" height="21.18"/>
  <rect class="cls-1" x="203.93" y="108.21" width="21.18" height="21.18"/>
  <rect class="cls-1" x="159.91" y="74.47" width="21.18" height="21.18"/>
  <rect class="cls-1" x="240.25" y="116.11" width="21.18" height="21.18"/>
  <rect class="cls-1" x="266.8" y="134.65" width="21.18" height="21.18"/>
  <rect class="cls-1" x="193.08" y="10.27" width="21.18" height="21.18"/>
  <rect class="cls-1" x="216.05" y="10.27" width="21.18" height="21.18"/>
  <rect class="cls-1" x="232.94" y="41.19" width="21.18" height="21.18"/>
  <rect class="cls-1" x="251.01" y="43.45" width="21.18" height="21.18"/>
  <rect class="cls-1" x="297.69" y="32.86" width="21.18" height="21.18"/>
  <rect class="cls-1" x="300.23" y="87.34" width="21.18" height="21.18"/>
  <rect class="cls-1" x="113.18" y="34.31" width="21.18" height="21.18"/>
  <rect class="cls-1" x="255.76" y="10.94" width="21.18" height="21.18"/>
  <rect class="cls-1" x="435.06" y="14.64" width="21.18" height="21.18"/>
  <rect class="cls-1" x="373.51" y="27.22" width="21.18" height="21.18"/>
  <rect class="cls-1" x="464.41" y="43.45" width="21.18" height="21.18"/>
  <rect class="cls-1" x="620.07" y="95.51" width="21.18" height="21.18"/>
  <rect class="cls-1" x="566.99" y="53.79" width="21.18" height="21.18"/>
  <rect class="cls-1" x="278.73" y="37.45" width="21.18" height="21.18"/>
  <rect class="cls-1" x="295.62" y="68.37" width="21.18" height="21.18"/>
  <rect class="cls-1" x="313.69" y="70.63" width="21.18" height="21.18"/>
  <rect class="cls-1" x="319.72" y="34.86" width="21.18" height="21.18"/>
  <rect class="cls-1" x="360.38" y="60.04" width="21.18" height="21.18"/>
  <rect class="cls-1" x="384.09" y="72.46" width="21.18" height="21.18"/>
  <rect class="cls-1" x="472.56" y="90.63" width="21.18" height="21.18"/>
  <rect class="cls-1" x="421.79" y="109.12" width="21.18" height="21.18"/>
  <rect class="cls-1" x="362.92" y="114.51" width="21.18" height="21.18"/>
  <rect class="cls-1" x="306.21" y="114.51" width="21.18" height="21.18"/>
  <rect class="cls-1" x="1167.46" y="-1.49" width="21.18" height="21.18" transform="translate(2356.09 18.19) rotate(180)"/>
  <rect class="cls-1" x="1339.92" y="107.02" width="21.18" height="21.18" transform="translate(2701.02 235.22) rotate(180)"/>
  <rect class="cls-1" x="1337.38" y="52.55" width="21.18" height="21.18" transform="translate(2695.94 126.28) rotate(180)"/>
  <rect class="cls-1" x="1202.55" y="125.24" width="21.18" height="21.18" transform="translate(2426.28 271.67) rotate(180)"/>
  <rect class="cls-1" x="1264.11" y="112.67" width="21.18" height="21.18" transform="translate(2549.39 246.51) rotate(180)"/>
  <rect class="cls-1" x="1173.2" y="96.44" width="21.18" height="21.18" transform="translate(2367.58 214.05) rotate(180)"/>
  <rect class="cls-1" x="1070.63" y="86.1" width="21.18" height="21.18" transform="translate(2162.43 193.38) rotate(180)"/>
  <rect class="cls-1" x="1341.99" y="71.52" width="21.18" height="21.18" transform="translate(2705.16 164.21) rotate(180)"/>
  <rect class="cls-1" x="1323.92" y="69.26" width="21.18" height="21.18" transform="translate(2669.02 159.69) rotate(180)"/>
  <rect class="cls-1" x="1317.9" y="105.02" width="21.18" height="21.18" transform="translate(2656.97 231.22) rotate(180)"/>
  <rect class="cls-1" x="1277.24" y="79.85" width="21.18" height="21.18" transform="translate(2575.65 180.87) rotate(180)"/>
  <rect class="cls-1" x="1253.52" y="67.42" width="21.18" height="21.18" transform="translate(2528.22 156.02) rotate(180)"/>
  <rect class="cls-1" x="1165.05" y="49.26" width="21.18" height="21.18" transform="translate(2351.28 119.69) rotate(180)"/>
  <rect class="cls-1" x="1215.83" y="30.76" width="21.18" height="21.18" transform="translate(2452.83 82.7) rotate(180)"/>
  <rect class="cls-1" x="1274.7" y="25.37" width="21.18" height="21.18" transform="translate(2570.57 71.92) rotate(180)"/>
  <rect class="cls-1" x="1331.4" y="25.37" width="21.18" height="21.18" transform="translate(2683.98 71.92) rotate(180)"/>
</svg>