<?xml version="1.0" encoding="UTF-8"?>
<svg id="Layer_1" data-name="Layer 1" xmlns="http://www.w3.org/2000/svg" xmlns:xlink="http://www.w3.org/1999/xlink" viewBox="0 0 100.4 86.98">
  <defs>
    <style>
      .cls-1 {
        fill: none;
      }

      .cls-2 {
        clip-path: url(#clippath);
      }

      .cls-3 {
        fill: #fff;
      }

      .cls-4 {
        fill: #eceef7;
      }

      .cls-5 {
        fill: #7c8db1;
      }

      .cls-6 {
        fill: #d2d2d1;
      }

      .cls-7 {
        fill: #36383d;
      }

      .cls-8 {
        fill: #7082ac;
      }

      .cls-9 {
        clip-path: url(#clippath-1);
      }

      .cls-10 {
        clip-path: url(#clippath-4);
      }

      .cls-11 {
        clip-path: url(#clippath-3);
      }

      .cls-12 {
        clip-path: url(#clippath-2);
      }

      .cls-13 {
        clip-path: url(#clippath-7);
      }

      .cls-14 {
        clip-path: url(#clippath-8);
      }

      .cls-15 {
        clip-path: url(#clippath-6);
      }

      .cls-16 {
        clip-path: url(#clippath-5);
      }

      .cls-17 {
        clip-path: url(#clippath-9);
      }

      .cls-18 {
        opacity: .5;
      }
    </style>
    <clipPath id="clippath">
      <rect class="cls-1" x="3.01" y="2.78" width="93.57" height="82.76"/>
    </clipPath>
    <clipPath id="clippath-1">
      <rect class="cls-1" x="3.01" y="2.78" width="93.57" height="82.76"/>
    </clipPath>
    <clipPath id="clippath-2">
      <rect class="cls-1" x="3.01" y="2.78" width="93.57" height="82.76"/>
    </clipPath>
    <clipPath id="clippath-3">
      <rect class="cls-1" x="3.01" y="2.78" width="93.57" height="82.76"/>
    </clipPath>
    <clipPath id="clippath-4">
      <rect class="cls-1" x="3.01" y="2.78" width="93.57" height="82.76"/>
    </clipPath>
    <clipPath id="clippath-5">
      <rect class="cls-1" x="3.01" y="2.78" width="93.57" height="82.76"/>
    </clipPath>
    <clipPath id="clippath-6">
      <rect class="cls-1" x="3.01" y="2.78" width="93.57" height="82.76"/>
    </clipPath>
    <clipPath id="clippath-7">
      <rect class="cls-1" x="3.01" y="2.78" width="93.57" height="82.76"/>
    </clipPath>
    <clipPath id="clippath-8">
      <rect class="cls-1" x="34.14" y="44.48" width="3.71" height="32.13"/>
    </clipPath>
    <clipPath id="clippath-9">
      <rect class="cls-1" x="3.01" y="2.78" width="93.57" height="82.76"/>
    </clipPath>
  </defs>
  <g class="cls-2">
    <g class="cls-9">
      <g>
        <g class="cls-12">
          <path class="cls-7" d="m93.89,48.09c4.74-4.72,3.28-14.27-4.93-14.27l-21.6.02c.82-4.58,2.01-12.16,1.96-12.88-.45-6.78-4.78-15.03-4.96-15.37-.79-1.47-4.77-3.46-8.77-2.6-5.18,1.11-5.71,4.41-5.69,5.32,0,0,.23,9.04.25,11.45-2.47,5.44-11.01,19.73-13.6,20.83-.62-.38-1.33-.58-2.05-.58H7.19c-2.31,0-4.18,1.87-4.18,4.18h0v37.72c.18,2.04,1.88,3.62,3.93,3.63h24.5c2.18,0,3.94-1.76,3.94-3.94v-1.25s.91-.06,1.32.2c1.58,1,3.53,2.26,6.07,2.26h36.59c13.67,0,12.2-12.14,10.96-13.8,2.31-2.52,3.74-6.95,1.79-10.46,1.51-1.58,4.15-5.95,1.79-10.46"/>
        </g>
        <g class="cls-11">
          <path class="cls-3" d="m88.34,37.78h-25.79c1-3.95,2.83-16.55,2.83-16.55-.42-6.12-4.51-13.79-4.51-13.79-4.86-2.05-7.04.76-7.04.76,0,0,.25,9.72.25,11.96s-11.11,20.2-13.82,22.51c-1.44,1.23-4.02,2.91-6.12,4.22v28.97h1.68c1.94,0,4.32,3,6.95,3l37.21-.02c7.48,0,8.67-8.42,3.73-9.23l.22-.93c4.73-.51,7.61-7.99,1.57-9.53l.22-.93c4.52-.48,7.87-7.74,1.57-9.53l.22-.93c5.93-.93,7.14-9.99.82-9.99"/>
        </g>
        <g class="cls-10">
          <path class="cls-4" d="m87.29,48.7l.22-.93c5.93-.94,7.14-9.99.82-9.99h-12.46c6.32,0,5.11,9.05-.82,9.99l-.1.55c6.3,1.79,2.82,9.43-1.69,9.9l-.1.56c6.04,1.53,3.04,9.39-1.7,9.9l-.09.55c4.94.81,3.62,9.61-3.86,9.61h-24.82s.05.02.07.02l37.21-.02c7.48,0,8.67-8.42,3.73-9.23l.22-.93c4.73-.51,7.61-7.99,1.57-9.53l.22-.93c4.51-.47,7.87-7.74,1.57-9.53"/>
        </g>
        <g class="cls-16">
          <path class="cls-8" d="m6.94,43.95h24.56v37.64H6.94v-37.64Z"/>
        </g>
        <g class="cls-15">
          <path class="cls-5" d="m6.94,81.6h24.56v-37.64H6.94s0,37.64,0,37.64Zm22.98-1.58H8.52v-31.2l21.4-.04v31.23Z"/>
        </g>
        <g class="cls-13">
          <g class="cls-18">
            <g class="cls-14">
              <path class="cls-6" d="m37.85,76.61v-32.13c-.05.04-3.44,2.25-3.71,2.41v28.97h1.68c.63,0,1.31.32,2.03.75"/>
            </g>
          </g>
        </g>
        <g class="cls-17">
          <path class="cls-4" d="m57.42,6.7h0c.02.07,3.04,11.26,3.04,12.86s-9.16,15.26-7.93,16.99c1.67,2.35,10.03,1.23,10.03,1.23,1-3.95,2.83-16.55,2.83-16.55-.42-6.11-4.5-13.79-4.5-13.79-.17-.07-1.56-.75-3.46-.75"/>
        </g>
      </g>
    </g>
  </g>
</svg>