<?xml version="1.0" encoding="utf-8"?>
<!-- Generator: Adobe Illustrator 27.5.0, SVG Export Plug-In . SVG Version: 6.00 Build 0)  -->
<svg version="1.1" id="Layer_1" xmlns="http://www.w3.org/2000/svg" xmlns:xlink="http://www.w3.org/1999/xlink" x="0px" y="0px"
	 viewBox="0 0 334.3 140.3" style="enable-background:new 0 0 334.3 140.3;" xml:space="preserve">
<style type="text/css">
	.st0{fill:#EBECF6;}
	.st1{fill:#C3C9D9;}
	.st2{fill:#FFFFFF;}
	.st3{clip-path:url(#SVGID_00000096051316101884600770000003693351351882104202_);}
	.st4{clip-path:url(#SVGID_00000009550620740681184470000002151047905952385164_);}
	.st5{clip-path:url(#SVGID_00000007399096234176466800000002185860461638389651_);fill:#36383D;}
	.st6{clip-path:url(#SVGID_00000057135009491936760380000010021594176298063799_);fill:#FFFFFF;}
	.st7{clip-path:url(#SVGID_00000118396530484622323710000010343209882690707079_);fill:#ECEEF7;}
	.st8{clip-path:url(#SVGID_00000062161082062382163080000010135574242577836982_);fill:#7082AC;}
	.st9{clip-path:url(#SVGID_00000167361840248056466760000002758355926604125057_);fill:#7C8DB1;}
	.st10{opacity:0.5;clip-path:url(#SVGID_00000088092555546487314050000016227415864055986602_);}
	.st11{clip-path:url(#SVGID_00000142161782004262005460000016481500272963358342_);fill:#D2D2D1;}
	.st12{clip-path:url(#SVGID_00000012457356906410348220000000538363691931749289_);fill:#ECEEF7;}
	.st13{fill:#465B94;}
</style>
<path class="st0" d="M12.3,137.8c-5.4,0-9.8-4.4-9.8-9.8V12.3c0-5.4,4.4-9.8,9.8-9.8H322c5.4,0,9.8,4.4,9.8,9.8V128
	c0,5.4-4.4,9.8-9.8,9.8H12.3z"/>
<path class="st1" d="M322,5c4,0,7.3,3.3,7.3,7.3V128c0,4-3.3,7.3-7.3,7.3l0,0H12.3c-4,0-7.3-3.3-7.3-7.3l0,0V12.3
	C5,8.3,8.3,5,12.3,5c0,0,0,0,0,0H322 M322,0H12.3C5.5,0,0,5.5,0,12.3V128c0,6.8,5.5,12.3,12.3,12.3H322c6.8,0,12.3-5.5,12.3-12.3
	V12.3C334.3,5.5,328.8,0,322,0z"/>
<path class="st2" d="M322,6.9c2.9,0,5.3,2.4,5.3,5.3V128c0,2.9-2.4,5.3-5.3,5.3H12.3c-2.9,0-5.3-2.4-5.3-5.3V12.3
	c0-2.9,2.4-5.3,5.3-5.3L322,6.9 M322,5H12.3C8.3,5,5,8.3,5,12.3c0,0,0,0,0,0V128c0,4,3.3,7.3,7.3,7.3c0,0,0,0,0,0H322
	c4,0,7.3-3.3,7.3-7.3c0,0,0,0,0,0V12.3C329.3,8.3,326,5,322,5z"/>
<g>
	<defs>
		<rect id="SVGID_1_" x="35.3" y="26.4" width="93.6" height="82.8"/>
	</defs>
	<clipPath id="SVGID_00000073680056268400758800000011444191396987667861_">
		<use xlink:href="#SVGID_1_"  style="overflow:visible;"/>
	</clipPath>
	<g style="clip-path:url(#SVGID_00000073680056268400758800000011444191396987667861_);">
		<g>
			<defs>
				<rect id="SVGID_00000115484876444343739960000004826901340716149691_" x="35.3" y="26.4" width="93.6" height="82.8"/>
			</defs>
			<clipPath id="SVGID_00000008113604782387393370000015407792485805618108_">
				<use xlink:href="#SVGID_00000115484876444343739960000004826901340716149691_"  style="overflow:visible;"/>
			</clipPath>
			<g style="clip-path:url(#SVGID_00000008113604782387393370000015407792485805618108_);">
				<g>
					<defs>
						<rect id="SVGID_00000013154334949023553750000006483454310293962410_" x="35.3" y="26.4" width="93.6" height="82.8"/>
					</defs>
					<clipPath id="SVGID_00000107585270268336198250000009431156849393298873_">
						<use xlink:href="#SVGID_00000013154334949023553750000006483454310293962410_"  style="overflow:visible;"/>
					</clipPath>
					<path style="clip-path:url(#SVGID_00000107585270268336198250000009431156849393298873_);fill:#36383D;" d="M126.2,71.7
						c4.7-4.7,3.3-14.3-4.9-14.3l-21.6,0c0.8-4.6,2-12.2,2-12.9c-0.5-6.8-4.8-15-5-15.4c-0.8-1.5-4.8-3.5-8.8-2.6
						c-5.2,1.1-5.7,4.4-5.7,5.3c0,0,0.2,9,0.2,11.4c-2.5,5.4-11,19.7-13.6,20.8c-0.6-0.4-1.3-0.6-2.1-0.6H39.5
						c-2.3,0-4.2,1.9-4.2,4.2l0,0l0,37.7c0.2,2,1.9,3.6,3.9,3.6h24.5c2.2,0,3.9-1.8,3.9-3.9v-1.3c0,0,0.9-0.1,1.3,0.2
						c1.6,1,3.5,2.3,6.1,2.3h36.6c13.7,0,12.2-12.1,11-13.8c2.3-2.5,3.7-7,1.8-10.5C126,80.5,128.6,76.2,126.2,71.7"/>
				</g>
				<g>
					<defs>
						<rect id="SVGID_00000101101751671639890160000012733421101237955239_" x="35.3" y="26.4" width="93.6" height="82.8"/>
					</defs>
					<clipPath id="SVGID_00000167392753652756122130000010341863845458231444_">
						<use xlink:href="#SVGID_00000101101751671639890160000012733421101237955239_"  style="overflow:visible;"/>
					</clipPath>
					<path style="clip-path:url(#SVGID_00000167392753652756122130000010341863845458231444_);fill:#FFFFFF;" d="M120.7,61.4H94.9
						c1-4,2.8-16.5,2.8-16.5C97.3,38.7,93.2,31,93.2,31c-4.9-2-7,0.8-7,0.8s0.3,9.7,0.3,12c0,2.2-11.1,20.2-13.8,22.5
						c-1.4,1.2-4,2.9-6.1,4.2v29l1.7,0c1.9,0,4.3,3,7,3l37.2,0c7.5,0,8.7-8.4,3.7-9.2l0.2-0.9c4.7-0.5,7.6-8,1.6-9.5l0.2-0.9
						c4.5-0.5,7.9-7.7,1.6-9.5l0.2-0.9C125.8,70.4,127,61.4,120.7,61.4"/>
				</g>
				<g>
					<defs>
						<rect id="SVGID_00000167385025838428277060000009988039318677467267_" x="35.3" y="26.4" width="93.6" height="82.8"/>
					</defs>
					<clipPath id="SVGID_00000018926248898217731170000013141413494325571741_">
						<use xlink:href="#SVGID_00000167385025838428277060000009988039318677467267_"  style="overflow:visible;"/>
					</clipPath>
					<path style="clip-path:url(#SVGID_00000018926248898217731170000013141413494325571741_);fill:#ECEEF7;" d="M119.6,72.3
						l0.2-0.9c5.9-0.9,7.1-10,0.8-10h-12.5c6.3,0,5.1,9.1-0.8,10l-0.1,0.6c6.3,1.8,2.8,9.4-1.7,9.9l-0.1,0.6c6,1.5,3,9.4-1.7,9.9
						l-0.1,0.6c4.9,0.8,3.6,9.6-3.9,9.6l-24.8,0c0,0,0.1,0,0.1,0l37.2,0c7.5,0,8.7-8.4,3.7-9.2l0.2-0.9c4.7-0.5,7.6-8,1.6-9.5
						l0.2-0.9C122.6,81.3,125.9,74.1,119.6,72.3"/>
				</g>
				<g>
					<defs>
						<rect id="SVGID_00000157308838650310940800000009198896217121597359_" x="35.3" y="26.4" width="93.6" height="82.8"/>
					</defs>
					<clipPath id="SVGID_00000066495395553271315930000004043966759716840372_">
						<use xlink:href="#SVGID_00000157308838650310940800000009198896217121597359_"  style="overflow:visible;"/>
					</clipPath>
					<path style="clip-path:url(#SVGID_00000066495395553271315930000004043966759716840372_);fill:#7082AC;" d="M39.3,67.5h24.6
						v37.6H39.3V67.5z"/>
				</g>
				<g>
					<defs>
						<rect id="SVGID_00000175312481862188033420000014739183340740113566_" x="35.3" y="26.4" width="93.6" height="82.8"/>
					</defs>
					<clipPath id="SVGID_00000002355435579989841250000015887488075815144613_">
						<use xlink:href="#SVGID_00000175312481862188033420000014739183340740113566_"  style="overflow:visible;"/>
					</clipPath>
					<path style="clip-path:url(#SVGID_00000002355435579989841250000015887488075815144613_);fill:#7C8DB1;" d="M39.3,105.2h24.6
						V67.5H39.3C39.3,67.5,39.3,105.2,39.3,105.2z M62.3,103.6H40.9V72.4l21.4,0V103.6z"/>
				</g>
				<g>
					<defs>
						<rect id="SVGID_00000008827898508901614700000001480082710357470359_" x="35.3" y="26.4" width="93.6" height="82.8"/>
					</defs>
					<clipPath id="SVGID_00000093134776559233789310000010127828251789477782_">
						<use xlink:href="#SVGID_00000008827898508901614700000001480082710357470359_"  style="overflow:visible;"/>
					</clipPath>
					<g style="opacity:0.5;clip-path:url(#SVGID_00000093134776559233789310000010127828251789477782_);">
						<g>
							<defs>
								<rect id="SVGID_00000067956747487706255460000005321280290031992972_" x="66.5" y="68.1" width="3.7" height="32.1"/>
							</defs>
							<clipPath id="SVGID_00000150083925138152303630000017962062031980540811_">
								<use xlink:href="#SVGID_00000067956747487706255460000005321280290031992972_"  style="overflow:visible;"/>
							</clipPath>
							<path style="clip-path:url(#SVGID_00000150083925138152303630000017962062031980540811_);fill:#D2D2D1;" d="M70.2,100.2V68.1
								c-0.1,0-3.4,2.2-3.7,2.4v29l1.7,0C68.8,99.5,69.5,99.8,70.2,100.2"/>
						</g>
					</g>
				</g>
				<g>
					<defs>
						<rect id="SVGID_00000036955615205925249910000013733444182788937114_" x="35.3" y="26.4" width="93.6" height="82.8"/>
					</defs>
					<clipPath id="SVGID_00000088122487998216462260000012569988243437728648_">
						<use xlink:href="#SVGID_00000036955615205925249910000013733444182788937114_"  style="overflow:visible;"/>
					</clipPath>
					<path style="clip-path:url(#SVGID_00000088122487998216462260000012569988243437728648_);fill:#ECEEF7;" d="M89.8,30.3
						L89.8,30.3c0,0.1,3,11.3,3,12.9c0,1.6-9.2,15.3-7.9,17c1.7,2.4,10,1.2,10,1.2c1-4,2.8-16.5,2.8-16.5C97.3,38.7,93.2,31,93.2,31
						C93.1,31,91.7,30.3,89.8,30.3"/>
				</g>
			</g>
		</g>
	</g>
</g>
<g>
	<path class="st13" d="M148,104.3V45.1h8.1v51.6h28.6v7.6L148,104.3L148,104.3z M195.6,51.3c-3.5,0-5.1-2.7-5.1-5.6s1.6-5.6,5.1-5.6
		s5.1,2.7,5.1,5.6S199.1,51.3,195.6,51.3z M191.8,104.3V60.7l7.8-1.2v44.8C199.5,104.3,191.8,104.3,191.8,104.3z M218.3,82.9v21.4
		h-7.8V40.4l7.8-1.2v41.6h0.2l17.9-19.9h9.9l-19.9,20.6l20,22.8h-9.9l-17.9-21.4H218.3z M254.4,83.9c0.3,8.5,6,14.6,14.3,14.6
		c4.5,0,9.5-1.2,13-3.6l1.4,7.2c-3.9,2.4-9.1,3.6-14.6,3.6c-13.1,0-22-9.4-22-22.6c0-14,9.3-23.6,21.4-23.6c10.5,0,16.6,6.6,16.6,17
		c0,2.4-0.4,5-0.9,6.9l-29.2,0.2L254.4,83.9L254.4,83.9z M277.1,77.6V77c0-6.4-3-10.7-9.9-10.7c-7.4,0-11.7,5.9-12.4,11.6
		C254.8,77.8,277.1,77.6,277.1,77.6z"/>
</g>
</svg>
