<?xml version="1.0" encoding="utf-8"?>
<!-- Generator: Adobe Illustrator 27.5.0, SVG Export Plug-In . SVG Version: 6.00 Build 0)  -->
<svg version="1.1" id="Layer_1" xmlns="http://www.w3.org/2000/svg" xmlns:xlink="http://www.w3.org/1999/xlink" x="0px" y="0px"
	 viewBox="0 0 150 43" style="enable-background:new 0 0 150 43;" xml:space="preserve">
<style type="text/css">
	.st0{clip-path:url(#SVGID_00000132801737513680570760000007216174003190382250_);}
	.st1{fill:#FF0420;}
</style>
<g>
	<defs>
		<rect id="SVGID_1_" width="150" height="20"/>
	</defs>
	<clipPath id="SVGID_00000164476153677443421090000001366331974398529953_">
		<use xlink:href="#SVGID_1_"  style="overflow:visible;"/>
	</clipPath>
	<g style="clip-path:url(#SVGID_00000164476153677443421090000001366331974398529953_);">
		<path class="st1" d="M7.6,20c-2.2,0-4-0.5-5.5-1.6C0.7,17.4,0,15.9,0,13.9c0-0.4,0-0.9,0.1-1.5c0.2-1.3,0.6-2.9,1-4.8
			C2.4,2.5,5.7,0,11,0c1.4,0,2.7,0.2,3.9,0.7c1.1,0.5,2,1.2,2.7,2.1c0.7,0.9,1,2,1,3.3c0,0.4,0,0.9-0.1,1.5c-0.3,1.6-0.6,3.3-1,4.8
			c-0.7,2.5-1.8,4.4-3.4,5.7C12.4,19.4,10.3,20,7.6,20z M8,16c1,0,1.9-0.3,2.7-0.9c0.7-0.6,1.3-1.5,1.6-2.8c0.4-1.7,0.8-3.3,1-4.6
			c0.1-0.4,0.1-0.8,0.1-1.2c0-1.7-0.9-2.5-2.7-2.5C9.6,4,8.7,4.3,8,4.9C7.2,5.5,6.7,6.5,6.4,7.7c-0.3,1.2-0.7,2.8-1,4.6
			c-0.1,0.4-0.1,0.8-0.1,1.2C5.3,15.1,6.2,16,8,16z"/>
		<path class="st1" d="M21.4,19.7c-0.2,0-0.4-0.1-0.5-0.2c-0.1-0.1-0.1-0.3-0.1-0.5L24.7,1c0-0.2,0.1-0.4,0.3-0.5
			c0.2-0.1,0.3-0.2,0.5-0.2H33c2.1,0,3.7,0.4,5,1.3c1.3,0.9,1.9,2.1,1.9,3.7c0,0.5-0.1,0.9-0.2,1.4c-0.5,2.1-1.4,3.7-2.8,4.7
			c-1.4,1-3.3,1.5-5.8,1.5h-3.8L26.1,19c0,0.2-0.1,0.4-0.3,0.5c-0.2,0.1-0.3,0.2-0.5,0.2H21.4z M31.3,9.1c0.8,0,1.5-0.2,2-0.6
			c0.6-0.4,1-1,1.2-1.8c0.1-0.3,0.1-0.6,0.1-0.8c0-0.5-0.2-0.9-0.5-1.2c-0.3-0.3-0.9-0.4-1.6-0.4h-3.4l-1.1,5H31.3z"/>
		<path class="st1" d="M46.3,19.7c-0.2,0-0.4-0.1-0.5-0.2c-0.1-0.1-0.1-0.3-0.1-0.5l3.1-14.4h-5c-0.2,0-0.4-0.1-0.5-0.2
			c-0.1-0.1-0.1-0.3-0.1-0.5l0.6-3c0-0.2,0.1-0.4,0.3-0.5c0.2-0.1,0.3-0.2,0.5-0.2h15.1c0.2,0,0.4,0.1,0.5,0.2
			c0.1,0.1,0.1,0.2,0.1,0.3c0,0.1,0,0.1,0,0.2l-0.6,3c0,0.2-0.1,0.4-0.3,0.5c-0.1,0.1-0.3,0.2-0.5,0.2h-5L50.8,19
			c0,0.2-0.1,0.4-0.3,0.5c-0.2,0.1-0.3,0.2-0.5,0.2H46.3z"/>
		<path class="st1" d="M61.1,19.7c-0.2,0-0.4-0.1-0.5-0.2c-0.1-0.1-0.1-0.3-0.1-0.5L64.4,1c0-0.2,0.1-0.4,0.3-0.5
			c0.2-0.1,0.3-0.2,0.5-0.2H69c0.2,0,0.4,0.1,0.5,0.2c0.1,0.1,0.1,0.2,0.1,0.3c0,0.1,0,0.1,0,0.2L65.7,19c0,0.2-0.1,0.4-0.3,0.5
			c-0.2,0.1-0.3,0.2-0.5,0.2H61.1z"/>
		<path class="st1" d="M71.8,19.7c-0.2,0-0.4-0.1-0.5-0.2c-0.1-0.1-0.1-0.3-0.1-0.5L75.1,1c0-0.2,0.1-0.4,0.3-0.5
			c0.2-0.1,0.4-0.2,0.6-0.2h3c0.4,0,0.7,0.2,0.9,0.6l3.1,8.7l6.8-8.7c0.1-0.1,0.2-0.3,0.4-0.4c0.2-0.1,0.4-0.2,0.7-0.2h3.1
			c0.2,0,0.4,0.1,0.5,0.2c0.1,0.1,0.1,0.2,0.1,0.3c0,0.1,0,0.1,0,0.2L90.5,19c0,0.2-0.1,0.4-0.3,0.5c-0.2,0.1-0.3,0.2-0.5,0.2h-3.4
			c-0.2,0-0.4-0.1-0.5-0.2c-0.1-0.1-0.1-0.3-0.1-0.5l2.2-10.3l-4.3,5.6c-0.2,0.2-0.4,0.4-0.5,0.5c-0.2,0.1-0.4,0.2-0.6,0.2H81
			c-0.4,0-0.7-0.2-0.8-0.6l-2-5.9L76,19c0,0.2-0.1,0.4-0.3,0.5c-0.2,0.1-0.3,0.2-0.5,0.2H71.8z"/>
		<path class="st1" d="M96.5,19.7c-0.2,0-0.4-0.1-0.5-0.2C96,19.4,95.9,19.2,96,19L99.9,1c0-0.2,0.1-0.4,0.3-0.5
			c0.2-0.1,0.3-0.2,0.5-0.2h3.8c0.2,0,0.4,0.1,0.5,0.2c0.1,0.1,0.1,0.2,0.1,0.3c0,0.1,0,0.1,0,0.2L101.2,19c0,0.2-0.1,0.4-0.3,0.5
			c-0.2,0.1-0.3,0.2-0.5,0.2H96.5z"/>
		<path class="st1" d="M114.2,20c-1.6,0-3.1-0.2-4.2-0.7c-1.2-0.4-2-1-2.6-1.8c-0.6-0.7-0.9-1.6-0.9-2.5c0-0.1,0-0.4,0.1-0.7
			c0-0.2,0.1-0.3,0.2-0.4c0.1-0.1,0.3-0.2,0.4-0.2h3.6c0.2,0,0.4,0,0.5,0.1c0.1,0.1,0.3,0.2,0.4,0.4c0.1,0.5,0.4,0.9,0.9,1.2
			c0.5,0.3,1.2,0.5,2,0.5c1.1,0,1.9-0.2,2.6-0.5c0.7-0.3,1-0.8,1.2-1.4c0-0.1,0-0.2,0-0.3c0-0.5-0.3-0.8-0.9-1.1
			c-0.6-0.3-1.6-0.6-3.2-1c-1.8-0.4-3.2-1-4.1-1.8c-0.9-0.8-1.4-1.8-1.4-3.1c0-0.4,0.1-0.9,0.2-1.4c0.4-1.7,1.3-3.1,2.8-4.1
			c1.5-1,3.4-1.5,5.8-1.5c1.4,0,2.7,0.2,3.8,0.8c1.1,0.5,2,1.1,2.6,1.9c0.6,0.8,0.9,1.5,0.9,2.3c0,0.2,0,0.4,0,0.5
			c0,0.2-0.1,0.3-0.3,0.4C124.3,5.9,124.2,6,124,6h-3.8c-0.4,0-0.7-0.2-0.8-0.5c0-0.4-0.2-0.8-0.7-1.1c-0.4-0.3-1-0.4-1.7-0.4
			c-0.8,0-1.5,0.1-2,0.4c-0.5,0.3-0.9,0.7-1,1.3c0,0.1,0,0.2,0,0.4c0,0.4,0.3,0.8,0.8,1.1c0.5,0.3,1.5,0.6,2.8,0.9
			c2.1,0.4,3.6,1,4.6,1.8c1,0.8,1.5,1.8,1.5,3c0,0.4-0.1,0.9-0.2,1.4c-0.4,1.9-1.4,3.3-3,4.3C118.9,19.5,116.8,20,114.2,20z"/>
		<path class="st1" d="M127.4,19.7c-0.2,0-0.4-0.1-0.5-0.2c-0.1-0.1-0.2-0.3-0.1-0.5L130.6,1c0-0.2,0.1-0.4,0.3-0.5
			c0.2-0.1,0.4-0.2,0.6-0.2h3c0.4,0,0.7,0.2,0.9,0.6l3.1,8.7l6.8-8.7c0.1-0.1,0.2-0.3,0.4-0.4c0.2-0.1,0.4-0.2,0.7-0.2h3.1
			c0.2,0,0.4,0.1,0.5,0.2c0.1,0.1,0.1,0.2,0.1,0.3c0,0.1,0,0.1,0,0.2L146.1,19c0,0.2-0.1,0.4-0.3,0.5c-0.2,0.1-0.3,0.2-0.5,0.2h-3.4
			c-0.2,0-0.4-0.1-0.5-0.2c-0.1-0.1-0.1-0.3-0.1-0.5l2.2-10.3l-4.3,5.6c-0.2,0.2-0.4,0.4-0.5,0.5c-0.2,0.1-0.4,0.2-0.6,0.2h-1.5
			c-0.4,0-0.7-0.2-0.8-0.6l-2-5.9L131.6,19c0,0.2-0.1,0.4-0.3,0.5c-0.2,0.1-0.3,0.2-0.5,0.2H127.4z"/>
	</g>
</g>
<g>
	<path d="M21.2,33.9c0-3.4,2.2-6.9,5.6-6.9c1.2,0,2.1,0.7,2.7,1.6l-0.9,0.7c-0.4-0.7-1-1.2-1.8-1.2c-2.6,0-4.2,3-4.2,5.7
		c0,2,0.8,3.4,2.8,3.4c0.9,0,1.6-0.4,2.3-1l0.6,0.8c-0.8,0.7-1.8,1.3-3.1,1.3C22.6,38.3,21.2,36.5,21.2,33.9z"/>
	<path d="M31.5,30.1h1.3l-1.6,8.1h-1.3L31.5,30.1z M31.8,27.6c0-0.5,0.4-1,1-1c0.4,0,0.8,0.3,0.8,0.8c0,0.5-0.4,0.9-1,0.9
		C32.2,28.4,31.8,28.1,31.8,27.6z"/>
	<path d="M34.5,36.5c0-0.3,0-0.6,0.1-0.9l0.9-4.5h-1.2l0.2-1l1.3-0.1l0.6-2.2h1.1L37,30.1h2l-0.2,1h-2.1l-0.9,4.6
		c0,0.2-0.1,0.4-0.1,0.6c0,0.7,0.3,1,1,1c0.3,0,0.6-0.1,0.8-0.2l0.3,0.9c-0.4,0.2-0.9,0.4-1.5,0.4C35,38.3,34.5,37.5,34.5,36.5z"/>
	<path d="M40.9,30.1h1.3l-1.6,8.1h-1.3L40.9,30.1z M41.1,27.6c0-0.5,0.4-1,1-1c0.4,0,0.8,0.3,0.8,0.8c0,0.5-0.4,0.9-1,0.9
		C41.5,28.4,41.1,28.1,41.1,27.6z"/>
	<path d="M42.6,37.4l5.4-6.3h-3.7l0.2-1h5.3l-0.1,0.8l-5.4,6.3h4.2l-0.2,1h-5.8L42.6,37.4z"/>
	<path d="M54.2,29.9c1.8,0,2.5,1.3,2.5,2.9c0,0.6-0.2,1.3-0.3,1.6h-5.2c-0.3,2.1,0.8,3,2.2,3c0.6,0,1.3-0.3,1.8-0.7l0.5,0.8
		c-0.6,0.5-1.6,0.9-2.6,0.9c-1.9,0-3.2-1.2-3.2-3.4C49.9,31.9,52.1,29.9,54.2,29.9z M55.5,33.5c0.1-0.3,0.1-0.5,0.1-0.8
		c0-0.9-0.4-1.8-1.6-1.8c-1.2,0-2.3,1-2.7,2.6H55.5z"/>
	<path d="M59.4,30.1h1l-0.1,1.2h0.1c0.9-0.8,1.8-1.4,2.8-1.4c1.4,0,1.9,0.8,1.9,2c0,0.4,0,0.7-0.1,1.1l-1,5.1h-1.3l1-5
		c0.1-0.4,0.1-0.7,0.1-0.9c0-0.8-0.4-1.2-1.2-1.2c-0.6,0-1.4,0.4-2.4,1.5L59,38.1h-1.3L59.4,30.1z"/>
	<path d="M74.2,27.2h1.5l1.3,10.9h-1.3L75,31.9c-0.1-1.2-0.2-2.3-0.3-3.5h-0.1c-0.6,1.2-1.1,2.3-1.7,3.5l-3.2,6.3h-1.4L74.2,27.2z
		 M71.2,33.7H76l-0.2,1h-4.8L71.2,33.7z"/>
	<path d="M78.5,36.5c0-0.3,0-0.6,0.1-0.9l0.9-4.5h-1.2l0.2-1l1.3-0.1l0.6-2.2h1.1L81,30.1h2l-0.2,1h-2.1l-0.9,4.6
		c0,0.2-0.1,0.4-0.1,0.6c0,0.7,0.3,1,1,1c0.3,0,0.6-0.1,0.8-0.2l0.3,0.9c-0.4,0.2-0.9,0.4-1.5,0.4C79,38.3,78.5,37.5,78.5,36.5z"/>
	<path d="M83.9,36.5c0-0.3,0-0.6,0.1-0.9l0.9-4.5h-1.2l0.2-1l1.3-0.1l0.6-2.2h1.1l-0.4,2.2h2l-0.2,1h-2.1l-0.9,4.6
		c0,0.2-0.1,0.4-0.1,0.6c0,0.7,0.3,1,1,1c0.3,0,0.6-0.1,0.8-0.2l0.3,0.9c-0.4,0.2-0.9,0.4-1.5,0.4C84.4,38.3,83.9,37.5,83.9,36.5z"
		/>
	<path d="M92.9,29.9c1.8,0,2.5,1.3,2.5,2.9c0,0.6-0.2,1.3-0.3,1.6h-5.2c-0.3,2.1,0.8,3,2.2,3c0.6,0,1.3-0.3,1.8-0.7l0.5,0.8
		c-0.6,0.5-1.6,0.9-2.6,0.9c-1.9,0-3.2-1.2-3.2-3.4C88.6,31.9,90.8,29.9,92.9,29.9z M94.2,33.5c0.1-0.3,0.1-0.5,0.1-0.8
		c0-0.9-0.4-1.8-1.6-1.8c-1.2,0-2.3,1-2.7,2.6H94.2z"/>
	<path d="M95.8,36.8l0.8-0.6c0.5,0.7,1.2,1.2,2.1,1.2c0.9,0,1.7-0.6,1.7-1.3c0-0.6-0.4-0.9-1.5-1.5c-1.2-0.7-1.8-1.3-1.8-2.2
		c0-1.4,1.3-2.4,2.8-2.4c1,0,1.8,0.5,2.4,1.1l-0.7,0.7c-0.4-0.4-0.9-0.8-1.7-0.8c-0.9,0-1.5,0.6-1.5,1.3c0,0.7,0.7,1,1.4,1.4
		c1.4,0.8,1.9,1.4,1.9,2.3c0,1.5-1.3,2.5-3,2.5C97.5,38.3,96.4,37.6,95.8,36.8z"/>
	<path d="M103.7,36.5c0-0.3,0-0.6,0.1-0.9l0.9-4.5h-1.2l0.2-1l1.3-0.1l0.6-2.2h1.1l-0.4,2.2h2l-0.2,1H106l-0.9,4.6
		c0,0.2-0.1,0.4-0.1,0.6c0,0.7,0.3,1,1,1c0.3,0,0.6-0.1,0.8-0.2l0.3,0.9c-0.4,0.2-0.9,0.4-1.5,0.4C104.2,38.3,103.7,37.5,103.7,36.5
		z"/>
	<path d="M108.4,35.4c0-3.1,2.1-5.5,4.3-5.5c0.9,0,1.6,0.5,2,1.2h0.1l0.3-1h1l-1.6,8.1h-1l0.1-1.2h-0.1c-0.8,0.8-1.8,1.4-2.8,1.4
		C109.3,38.3,108.4,37.3,108.4,35.4z M113.8,35.7l0.7-3.6c-0.5-0.9-1-1.2-1.7-1.2c-1.6,0-3.1,2-3.1,4.3c0,1.4,0.6,2,1.5,2
		C112.1,37.3,113,36.8,113.8,35.7z"/>
	<path d="M117.8,36.5c0-0.3,0-0.6,0.1-0.9l0.9-4.5h-1.2l0.2-1l1.3-0.1l0.6-2.2h1.1l-0.4,2.2h2l-0.2,1h-2.1l-0.9,4.6
		c0,0.2-0.1,0.4-0.1,0.6c0,0.7,0.3,1,1,1c0.3,0,0.6-0.1,0.8-0.2l0.3,0.9c-0.4,0.2-0.9,0.4-1.5,0.4C118.4,38.3,117.8,37.5,117.8,36.5
		z"/>
	<path d="M124.2,30.1h1.3l-1.6,8.1h-1.3L124.2,30.1z M124.5,27.6c0-0.5,0.4-1,1-1c0.4,0,0.8,0.3,0.8,0.8c0,0.5-0.4,0.9-1,0.9
		C124.9,28.4,124.5,28.1,124.5,27.6z"/>
	<path d="M126.7,35.1c0-3,2.1-5.2,4.4-5.2c1.7,0,2.9,1.2,2.9,3.2c0,3-2.1,5.2-4.4,5.2C127.8,38.3,126.7,37.1,126.7,35.1z
		 M132.6,33.2c0-1.5-0.6-2.3-1.7-2.3c-1.5,0-2.9,1.8-2.9,4.1c0,1.5,0.6,2.3,1.7,2.3C131.1,37.3,132.6,35.4,132.6,33.2z"/>
	<path d="M136.7,30.1h1l-0.1,1.2h0.1c0.9-0.8,1.8-1.4,2.8-1.4c1.4,0,1.9,0.8,1.9,2c0,0.4,0,0.7-0.1,1.1l-1,5.1H140l1-5
		c0.1-0.4,0.1-0.7,0.1-0.9c0-0.8-0.4-1.2-1.2-1.2c-0.6,0-1.4,0.4-2.4,1.5l-1.1,5.7h-1.3L136.7,30.1z"/>
	<path d="M143.2,36.8l0.8-0.6c0.5,0.7,1.2,1.2,2.1,1.2c0.9,0,1.7-0.6,1.7-1.3c0-0.6-0.4-0.9-1.5-1.5c-1.2-0.7-1.8-1.3-1.8-2.2
		c0-1.4,1.3-2.4,2.8-2.4c1,0,1.8,0.5,2.4,1.1l-0.7,0.7c-0.4-0.4-0.9-0.8-1.7-0.8c-0.9,0-1.5,0.6-1.5,1.3c0,0.7,0.7,1,1.4,1.4
		c1.4,0.8,1.9,1.4,1.9,2.3c0,1.5-1.3,2.5-3,2.5C144.9,38.3,143.7,37.6,143.2,36.8z"/>
</g>
</svg>
